DBRep_DrawableShape

CASCADE Topology V1, (c) Matra-Datavision
Locations 0
Curve2ds 6
1 0 1.5707963267948966 1 0 
1 3.1415926535897931 0 0 1 
1 3.1415926535897931 0 0 1 
1 0 -1.5707963267948966 1 0 
1 6.2831853071795862 -6.2831853071795862 0 1 
1 6.2831853071795862 -6.2831853071795862 0 1 
Curves 22
7 0 0  8 9 2  0.49999999999999989 0.5 -0.5  0.10730091830127599 0.50000000000000044 -0.50000000000000022  -0.28540282094168606 0.49999999999999944 -0.32371721549249738  -0.58578425720540017 0.50000000000000211 0.028531555854884202  -0.7018057290002242 0.49999999999999623 0.5  -0.58578425720539995 0.500000000000005 0.97146844414511579  -0.28540282094168629 0.49999999999999656 1.323717215492497  0.10730091830127615 0.50000000000000167 1.5000000000000004  0.49999999999999989 0.5 1.4999999999999998 
 -1.5707963267948966 9 1.5707963267948966 9
2 0.5 0.5 0.5 -2.4492935982947064e-16 -1 0 1 -2.4492935982947064e-16 0 0 0 1 1
1 -0.75 0.5 1 1 0 -0 
1 1 0.5 -0.75 -0 0 -1 
1 -0.75 0.5 0 1 0 -0 
1 0 0.5 -0.75 -0 0 -1 
1 0 0 1 -0 1 0 
1 1 0 1 -0 1 0 
1 0 0 1 1 0 -0 
1 0 0 1 -0 1 0 
1 0 1 1 1 0 -0 
1 1 0 1 -0 1 0 
1 1 0 0 -0 1 0 
1 1 0 0 0 0 1 
1 1 1 0 0 0 1 
1 1 0 0 -0 1 0 
1 0 0 0 -0 1 0 
1 0 0 0 1 0 -0 
1 0 0 0 -0 1 0 
1 0 1 0 1 0 -0 
1 0 0 0 0 0 1 
1 0 1 0 0 0 1 
Polygon3D 0
PolygonOnTriangulations 0
Surfaces 13
10 3.1415926535897931 6.2831853071795862 -1.5707963267948966 1.5707963267948966
4 0.5 0.5 0.5 0 0 1 1 0 -0 -0 1 0 1
10 3.1415926535897931 6.2831853071795862 -1.5707963267948966 1.5707963267948966
4 0.5 0.5 0.5 -0 -0 1 1 -0 -0 -0 -1 -0 1
1 -1.5 0.5 -1.5 -0 1 0 0 0 1 1 0 -0 
1 0 0 1 0 0 1 1 0 -0 -0 1 0 
1 0 0 1 0 0 1 1 0 -0 -0 1 0 
1 1 0 0 1 0 -0 0 0 1 0 -1 0 
1 1 0 0 1 0 -0 0 0 1 0 -1 0 
1 0 0 0 0 0 1 1 0 -0 -0 1 0 
1 0 0 0 0 0 1 1 0 -0 -0 1 0 
1 0 0 0 1 0 -0 0 0 1 0 -1 0 
1 0 0 0 1 0 -0 0 0 1 0 -1 0 
1 0 0 0 -0 1 0 0 0 1 1 0 -0 
1 0 1 0 -0 1 0 0 0 1 1 0 -0 
Triangulations 0

TShapes 69
Ve
1.00000000009837e-05
0.5 0.5 1.5
0 0

0101101
*
Ed
 1e-07 1 1 1
2  1 1 0 3.14159265358979 6.28318530717959
0

0101000
+69 0 -69 0 *
Ve
1.00000000009837e-05
0.5 0.5 -0.5
0 0

0101101
*
Ed
 1.00000000009837e-05 1 1 0
1  1 0 -1.5707963267949 1.5707963267949
2  2 1 0 -1.5707963267949 1.5707963267949
2  3 2 0 -1.5707963267949 1.5707963267949
0

0101000
+67 0 -69 0 *
Ed
 1e-07 1 1 1
2  4 1 0 3.14159265358979 6.28318530717959
0

0101000
+67 0 -67 0 *
Ed
 1.00000000666134e-07 1 1 0
1  2 0 4.71238898038469 7.85398163397448
2  5 1 0 4.71238898038469 7.85398163397448
2  6 2 0 4.71238898038469 7.85398163397448
0

0101000
+67 0 -69 0 *
Wi

0101100
-68 0 -66 0 +65 0 +64 0 *
Fa
0  1e-07 1 0

0111000
+63 0 *
Wi

0101100
-64 0 +66 0 *
Ve
1.5e-07
0 0.5 1
0 0

0101101
*
Ve
1.5e-07
1 0.5 1
0 0

0101101
*
Ed
 1.5e-07 1 1 0
1  3 0 0.75 1.75
0

0101000
+60 0 -59 0 *
Ve
1.5e-07
1 0.5 0
0 0

0101101
*
Ed
 1.5e-07 1 1 0
1  4 0 -1.75 -0.75
0

0101000
+59 0 -57 0 *
Ve
1.5e-07
0 0.5 0
0 0

0101101
*
Ed
 1.5e-07 1 1 0
1  5 0 0.75 1.75
0

0101000
+55 0 -57 0 *
Ed
 1.5e-07 1 1 0
1  6 0 -1.75 -0.75
0

0101000
+60 0 -55 0 *
Wi

0101100
-58 0 -56 0 +54 0 +53 0 *
Fa
0  1e-07 3 0

0111000
+61 0 +52 0 *
Ed
 1e-07 1 1 1
2  1 2 0 3.14159265358979 6.28318530717959
0

0101000
+69 0 -69 0 *
Ed
 1e-07 1 1 1
2  4 2 0 3.14159265358979 6.28318530717959
0

0101000
+67 0 -67 0 *
Wi

0101100
-50 0 -66 0 +49 0 +64 0 *
Fa
0  1e-07 2 0

0111000
+48 0 *
Ve
1e-07
0 0 1
0 0

0101101
*
Ed
 1e-07 1 1 0
1  7 0 0 0.5
0

0101000
+46 0 -60 0 *
Ve
1e-07
1 0 1
0 0

0101101
*
Ed
 1e-07 1 1 0
1  8 0 0 0.5
0

0101000
+44 0 -59 0 *
Ed
 1e-07 1 1 0
1  9 0 0 1
0

0101000
+46 0 -44 0 *
Wi

0101100
-45 0 -58 0 +43 0 +42 0 *
Fa
0  1e-07 4 0

0111000
+41 0 *
Ve
1e-07
0 1 1
0 0

0101101
*
Ed
 1e-07 1 1 0
1  10 0 0.5 1
0

0101000
+60 0 -39 0 *
Ve
1e-07
1 1 1
0 0

0101101
*
Ed
 1e-07 1 1 0
1  11 0 0 1
0

0101000
+39 0 -37 0 *
Ed
 1e-07 1 1 0
1  12 0 0.5 1
0

0101000
+59 0 -37 0 *
Wi

0101100
-38 0 -36 0 +35 0 +58 0 *
Fa
0  1e-07 5 0

0111000
+34 0 *
Ve
1e-07
1 0 0
0 0

0101101
*
Ed
 1e-07 1 1 0
1  13 0 0 0.5
0

0101000
+32 0 -57 0 *
Ed
 1e-07 1 1 0
1  14 0 0 1
0

0101000
+32 0 -44 0 *
Wi

0101100
-43 0 -56 0 +31 0 -30 0 *
Fa
0  1e-07 6 0

0111000
+29 0 *
Ve
1e-07
1 1 0
0 0

0101101
*
Ed
 1e-07 1 1 0
1  15 0 0 1
0

0101000
+27 0 -37 0 *
Ed
 1e-07 1 1 0
1  16 0 0.5 1
0

0101000
+57 0 -27 0 *
Wi

0101100
+56 0 -35 0 +26 0 +25 0 *
Fa
0  1e-07 7 0

0111000
+24 0 *
Ve
1e-07
0 0 0
0 0

0101101
*
Ed
 1e-07 1 1 0
1  17 0 0 0.5
0

0101000
+22 0 -55 0 *
Ed
 1e-07 1 1 0
1  18 0 0 1
0

0101000
+22 0 -32 0 *
Wi

0101100
-21 0 -54 0 +31 0 +20 0 *
Fa
0  1e-07 8 0

0111000
+19 0 *
Ve
1e-07
0 1 0
0 0

0101101
*
Ed
 1e-07 1 1 0
1  19 0 0.5 1
0

0101000
+55 0 -17 0 *
Ed
 1e-07 1 1 0
1  20 0 0 1
0

0101000
+17 0 -27 0 *
Wi

0101100
-16 0 -15 0 +25 0 +54 0 *
Fa
0  1e-07 9 0

0111000
+14 0 *
Ed
 1e-07 1 1 0
1  21 0 0 1
0

0101000
+22 0 -46 0 *
Wi

0101100
-45 0 -53 0 +21 0 -12 0 *
Fa
0  1e-07 10 0

0111000
+11 0 *
Ed
 1e-07 1 1 0
1  22 0 0 1
0

0101000
+17 0 -39 0 *
Wi

0101100
+53 0 -38 0 +9 0 +16 0 *
Fa
0  1e-07 11 0

0111000
+8 0 *
Wi

0101100
-20 0 -30 0 +42 0 +12 0 *
Fa
0  1e-07 12 0

0111000
+6 0 *
Wi

0101100
-15 0 -26 0 +36 0 +9 0 *
Fa
0  1e-07 13 0

0111000
+4 0 *
Sh

0101000
+62 0 +51 0 -47 0 -40 0 -33 0 -28 0 -23 0 +18 0 +13 0 +10 0 
+7 0 +5 0 -3 0 *
Co

1100000
+2 0 *

+1 0 
##EGADS HEADER FILE-REV 1 ##
0
  0  1  13  14  26  14  6
3 7 39
capsAIM
#egadsTessAIM;aflr4AIM;tetgenAIM;pumiAIM
2 14 1
capsMeshLength
 1.000000000000e+00
3 9 3
capsGroup
#box
1 5 1
_body
15
1 5 1
_brch
17
2 8 3
_tParams
 8.660254508728e-02  2.598076352619e-02  2.000000000000e+01 
    2 0 6
1 5 2
_body
2 1 
1 5 2
_brch
9 6 
1 5 6
_hist
2 4 6 8 11 15 
1 7 3
_faceID
2 1 1 
3 9 3
capsGroup
#box
3 8 16
AFLR_GBC
#FARFIELD_UG3_GBC
    2 1 6
1 5 2
_body
3 3 
1 5 2
_brch
14 6 
1 5 6
_hist
3 4 6 13 14 15 
1 7 3
_faceID
3 3 1 
3 9 3
capsGroup
#box
3 8 14
AFLR_GBC
#TRANSP_UG3_GBC
    2 2 6
1 5 2
_body
2 1 
1 5 2
_brch
14 6 
1 5 6
_hist
2 4 6 13 14 15 
1 7 3
_faceID
2 1 2 
3 9 3
capsGroup
#box
3 8 16
AFLR_GBC
#FARFIELD_UG3_GBC
    2 3 6
1 5 2
_body
1 6 
1 5 2
_brch
11 1 
1 5 4
_hist
1 10 11 15 
1 7 3
_faceID
1 6 1 
3 9 3
capsGroup
#box
3 8 14
AFLR_GBC
#TRANSP_UG3_GBC
    2 4 6
1 5 2
_body
1 6 
1 5 2
_brch
14 6 
1 5 5
_hist
1 6 13 14 15 
1 7 3
_faceID
1 6 2 
3 9 3
capsGroup
#box
3 8 14
AFLR_GBC
#TRANSP_UG3_GBC
    2 5 6
1 5 2
_body
1 2 
1 5 2
_brch
11 1 
1 5 4
_hist
1 10 11 15 
1 7 3
_faceID
1 2 1 
3 9 3
capsGroup
#box
3 8 14
AFLR_GBC
#TRANSP_UG3_GBC
    2 6 6
1 5 2
_body
1 2 
1 5 2
_brch
14 6 
1 5 5
_hist
1 6 13 14 15 
1 7 3
_faceID
1 2 2 
3 9 3
capsGroup
#box
3 8 14
AFLR_GBC
#TRANSP_UG3_GBC
    2 7 6
1 5 2
_body
1 5 
1 5 2
_brch
11 1 
1 5 4
_hist
1 10 11 15 
1 7 3
_faceID
1 5 1 
3 9 3
capsGroup
#box
3 8 14
AFLR_GBC
#TRANSP_UG3_GBC
    2 8 6
1 5 2
_body
1 5 
1 5 2
_brch
14 6 
1 5 5
_hist
1 6 13 14 15 
1 7 3
_faceID
1 5 2 
3 9 3
capsGroup
#box
3 8 14
AFLR_GBC
#TRANSP_UG3_GBC
    2 9 6
1 5 2
_body
1 1 
1 5 2
_brch
11 1 
1 5 4
_hist
1 10 11 15 
1 7 3
_faceID
1 1 1 
3 9 3
capsGroup
#box
3 8 14
AFLR_GBC
#TRANSP_UG3_GBC
    2 10 6
1 5 2
_body
1 1 
1 5 2
_brch
14 6 
1 5 5
_hist
1 6 13 14 15 
1 7 3
_faceID
1 1 2 
3 9 3
capsGroup
#box
3 8 14
AFLR_GBC
#TRANSP_UG3_GBC
    2 11 6
1 5 2
_body
1 3 
1 5 2
_brch
11 1 
1 5 4
_hist
1 10 11 15 
1 7 3
_faceID
1 3 1 
3 9 3
capsGroup
#box
3 8 14
AFLR_GBC
#TRANSP_UG3_GBC
    2 12 6
1 5 2
_body
1 3 
1 5 2
_brch
14 6 
1 5 5
_hist
1 6 13 14 15 
1 7 3
_faceID
1 3 2 
3 9 3
capsGroup
#box
3 8 14
AFLR_GBC
#TRANSP_UG3_GBC
    4 0 3
1 5 2
_body
2 -3 
1 7 5
_edgeID
0 0 2 1 4 
1 6 1
_nface
1
    4 1 3
1 5 2
_body
2 101 
1 7 5
_edgeID
2 1 2 1 1 
1 6 1
_nface
3
    4 2 3
1 5 2
_body
2 -3 
1 7 5
_edgeID
0 0 2 1 1 
1 6 1
_nface
1
    4 3 3
1 5 2
_body
2 101 
1 7 5
_edgeID
2 1 2 1 2 
1 6 1
_nface
3
    4 4 3
1 5 2
_body
1 606 
1 7 5
_edgeID
1 6 1 6 1 
1 6 1
_nface
3
    4 5 3
1 5 2
_body
1 202 
1 7 5
_edgeID
1 2 1 2 1 
1 6 1
_nface
3
    4 6 3
1 5 2
_body
1 505 
1 7 5
_edgeID
1 5 1 5 1 
1 6 1
_nface
3
    4 7 3
1 5 2
_body
1 101 
1 7 5
_edgeID
1 1 1 1 1 
1 6 1
_nface
3
    4 8 3
1 5 2
_body
2 -3 
1 7 5
_edgeID
0 0 2 1 3 
1 6 1
_nface
1
    4 9 3
1 5 2
_body
2 -3 
1 7 5
_edgeID
0 0 2 1 2 
1 6 1
_nface
1
    4 10 3
1 5 2
_body
1 601 
1 7 5
_edgeID
1 1 1 6 1 
1 6 1
_nface
2
    4 11 3
1 5 2
_body
1 206 
1 7 5
_edgeID
1 2 1 6 1 
1 6 1
_nface
2
    4 12 3
1 5 2
_body
1 306 
1 7 5
_edgeID
1 3 1 6 1 
1 6 1
_nface
2
    4 13 3
1 5 2
_body
1 601 
1 7 5
_edgeID
1 1 1 6 2 
1 6 1
_nface
2
    4 14 3
1 5 2
_body
1 603 
1 7 5
_edgeID
1 3 1 6 2 
1 6 1
_nface
2
    4 15 3
1 5 2
_body
1 206 
1 7 5
_edgeID
1 2 1 6 2 
1 6 1
_nface
2
    4 16 3
1 5 2
_body
1 502 
1 7 5
_edgeID
1 2 1 5 1 
1 6 1
_nface
2
    4 17 3
1 5 2
_body
1 203 
1 7 5
_edgeID
1 2 1 3 1 
1 6 1
_nface
2
    4 18 3
1 5 2
_body
1 302 
1 7 5
_edgeID
1 2 1 3 2 
1 6 1
_nface
2
    4 19 3
1 5 2
_body
1 502 
1 7 5
_edgeID
1 2 1 5 2 
1 6 1
_nface
2
    4 20 3
1 5 2
_body
1 105 
1 7 5
_edgeID
1 1 1 5 1 
1 6 1
_nface
2
    4 21 3
1 5 2
_body
1 503 
1 7 5
_edgeID
1 3 1 5 1 
1 6 1
_nface
2
    4 22 3
1 5 2
_body
1 105 
1 7 5
_edgeID
1 1 1 5 2 
1 6 1
_nface
2
    4 23 3
1 5 2
_body
1 305 
1 7 5
_edgeID
1 3 1 5 2 
1 6 1
_nface
2
    4 24 3
1 5 2
_body
1 301 
1 7 5
_edgeID
1 1 1 3 1 
1 6 1
_nface
2
    4 25 3
1 5 2
_body
1 103 
1 7 5
_edgeID
1 1 1 3 2 
1 6 1
_nface
2
    5 0 2
1 7 1
_nodeID
1
1 6 1
_nedge
4
    5 1 2
1 7 1
_nodeID
2
1 6 1
_nedge
4
    5 2 2
1 7 1
_nodeID
3
1 6 1
_nedge
4
    5 3 2
1 7 1
_nodeID
4
1 6 1
_nedge
4
    5 4 2
1 7 1
_nodeID
5
1 6 1
_nedge
4
    5 5 2
1 7 1
_nodeID
6
1 6 1
_nedge
4
    5 6 2
1 7 1
_nodeID
7
1 6 1
_nedge
3
    5 7 2
1 7 1
_nodeID
8
1 6 1
_nedge
3
    5 8 2
1 7 1
_nodeID
9
1 6 1
_nedge
3
    5 9 2
1 7 1
_nodeID
10
1 6 1
_nedge
3
    5 10 2
1 7 1
_nodeID
11
1 6 1
_nedge
3
    5 11 2
1 7 1
_nodeID
12
1 6 1
_nedge
3
    5 12 2
1 7 1
_nodeID
13
1 6 1
_nedge
3
    5 13 2
1 7 1
_nodeID
14
1 6 1
_nedge
3
    0 0 0
