DBRep_DrawableShape

CASCADE Topology V1, (c) Matra-Datavision
Locations 0
Curve2ds 22
1 0 1.5707963267948966 1 0 
1 0 -6.2831853071795862 0 1 
1 2.4492935982947064e-16 -6.2831853071795862 0 1 
1 0 -1.5707963267948966 1 0 
1 3.1415926535897931 0 0 1 
8 -1.5707963267948966 1.5707963267948966
1 3.1415926535897931 0 0 1 
1 3.1415926535897931 0 0 1 
8 0 0.01
1 3.1415926535897931 0 0 1 
1 3.1415926535897931 0 0 1 
8 0 0.01
1 3.1415926535897931 0 0 1 
8 0 0.01
1 3.1415926535897931 0 0 1 
8 0 0.01
1 3.1415926535897931 0 0 1 
1 0 -0 0 1 
8 0 0.01
1 0 -0 0 1 
1 0 -0 0 1 
8 0 0.01
1 0 -0 0 1 
8 0 0.01
1 0 -0 0 1 
8 0 0.01
1 0 -0 0 1 
1 0 0.01 1 0 
1 0 0 1 0 
1 0 0.01 1 0 
1 0 0 1 0 
Curves 34
2 0 0 0 2.4492935982947064e-16 -1 0 1 2.4492935982947064e-16 -0 -0 -0 1 0.10000000000000001
7 0 0  7 8 2  0 1.5407439555097887e-33 -0.10000000000000001  -0.04487989505128314 -5.4962019820623005e-18 -0.099999999999999811  -0.089720495927406274 -1.0987591815541136e-17 -0.076495628732333107  -0.12004645789167713 -1.4701451040601955e-17 -0.029537573823819101  -0.12004645789167166 -1.4701451040601357e-17 0.029537573823819361  -0.089720495927409341 -1.0987591815541478e-17 0.076495628732332552  -0.044879895051282349 -5.4962019820622096e-18 0.10000000000000014  0 1.5407439555097887e-33 0.10000000000000002 
 -1.5707963267948966 8 1.5707963267948966 8
7 0 0  1 2 2  -0.059999999999999998 -7.3478807948841184e-18 -0.030000000000000002  -0.059999999999999998 -7.3478807948841184e-18 -0.02 
 0 2 0.01 2
1 -0.5 0 -0.020000000000000011 1 -0 -0 
7 0 0  1 2 2  -0.050000000000000003 -6.1232339957367663e-18 -0.030000000000000002  -0.050000000000000003 -6.1232339957367663e-18 -0.02 
 0 2 0.01 2
1 -0.5 0 -0.030000000000000013 1 -0 -0 
7 0 0  1 2 2  -0.059999999999999998 -7.3478807948841184e-18 0.02  -0.059999999999999998 -7.3478807948841184e-18 0.030000000000000002 
 0 2 0.01 2
1 -0.5 0 0.020000000000000011 1 -0 -0 
1 -0.5 0 0.030000000000000013 1 -0 -0 
7 0 0  1 2 2  -0.050000000000000003 -6.1232339957367663e-18 0.02  -0.050000000000000003 -6.1232339957367663e-18 0.030000000000000002 
 0 2 0.01 2
1 -0.5 0 -0.030000000000000013 1 -0 -0 
1 0.050000000000000003 1.2246467991473533e-17 -0.030000000000000002 -0 -0 1 
1 -0.5 0 -0.020000000000000011 1 -0 -0 
1 0.059999999999999998 1.4695761589768237e-17 -0.030000000000000002 -0 -0 1 
1 -0.5 0 0.020000000000000011 1 -0 -0 
1 0.050000000000000003 1.2246467991473533e-17 0.02 -0 -0 1 
1 0.059999999999999998 1.4695761589768237e-17 0.02 -0 -0 1 
1 -0.5 0 0.030000000000000013 1 -0 -0 
2 0 0 -0.02 0 0 -1 1 -0 -0 -0 -1 -0 0.059999999999999998
2 0 0 -0.030000000000000002 0 0 -1 1 -0 -0 -0 -1 -0 0.059999999999999998
2 0 0 -0.02 0 0 1 1 0 0 0 1 0 0.059999999999999998
2 0 0 -0.030000000000000002 0 0 1 1 0 0 0 1 0 0.059999999999999998
2 0 0 -0.02 0 0 -1 1 -0 -0 -0 -1 -0 0.050000000000000003
2 0 0 -0.02 0 0 1 1 0 0 0 1 0 0.050000000000000003
2 0 0 -0.030000000000000002 0 0 -1 1 -0 -0 -0 -1 -0 0.050000000000000003
2 0 0 -0.030000000000000002 0 0 1 1 0 0 0 1 0 0.050000000000000003
2 0 0 0.030000000000000002 0 0 -1 1 -0 -0 -0 -1 -0 0.059999999999999998
2 0 0 0.02 0 0 -1 1 -0 -0 -0 -1 -0 0.059999999999999998
2 0 0 0.030000000000000002 0 0 1 1 0 0 0 1 0 0.059999999999999998
2 0 0 0.02 0 0 1 1 0 0 0 1 0 0.059999999999999998
2 0 0 0.02 0 0 -1 1 -0 -0 -0 -1 -0 0.050000000000000003
2 0 0 0.02 0 0 1 1 0 0 0 1 0 0.050000000000000003
2 0 0 0.030000000000000002 0 0 -1 1 -0 -0 -0 -1 -0 0.050000000000000003
2 0 0 0.030000000000000002 0 0 1 1 0 0 0 1 0 0.050000000000000003
Polygon3D 0
PolygonOnTriangulations 0
Surfaces 19
10 0 3.1415926535897931 -1.5707963267948966 1.5707963267948966
4 0 0 0 -0 -0 1 1 -0 -0 -0 -1 -0 0.10000000000000001
10 0 3.1415926535897931 -1.5707963267948966 1.5707963267948966
4 0 0 0 0 0 1 1 0 -0 -0 1 0 0.10000000000000001
1 -1 0 -1 -0 -1 -0 -0 -0 1 1 -0 -0 
10 0 3.1415926535897931 0 0.01
2 0 0 -0.030000000000000002 -0 -0 1 1 -0 -0 -0 -1 -0 0.059999999999999998
10 0 3.1415926535897931 0 0.01
2 0 0 -0.030000000000000002 0 0 1 1 0 0 0 1 0 0.059999999999999998
10 0 3.1415926535897931 0 0.01
2 0 0 -0.030000000000000002 -0 -0 1 1 -0 -0 -0 -1 -0 0.050000000000000003
10 0 3.1415926535897931 0 0.01
2 0 0 -0.030000000000000002 0 0 1 1 0 0 0 1 0 0.050000000000000003
10 0 3.1415926535897931 0 0.01
2 0 0 0.02 -0 -0 1 1 -0 -0 -0 -1 -0 0.059999999999999998
10 0 3.1415926535897931 0 0.01
2 0 0 0.02 0 0 1 1 0 0 0 1 0 0.059999999999999998
10 0 3.1415926535897931 0 0.01
2 0 0 0.02 -0 -0 1 1 -0 -0 -0 -1 -0 0.050000000000000003
10 0 3.1415926535897931 0 0.01
2 0 0 0.02 0 0 1 1 0 0 0 1 0 0.050000000000000003
1 0 0 -0.02 -0 -0 1 1 -0 -0 -0 -1 -0 
1 0 0 -0.02 0 0 1 1 0 0 0 1 0 
1 0 0 -0.030000000000000002 -0 -0 1 1 -0 -0 -0 -1 -0 
1 0 0 -0.030000000000000002 0 0 1 1 0 0 0 1 0 
1 0 0 0.02 -0 -0 1 1 -0 -0 -0 -1 -0 
1 0 0 0.02 0 0 1 1 0 0 0 1 0 
1 0 0 0.030000000000000002 -0 -0 1 1 -0 -0 -0 -1 -0 
1 0 0 0.030000000000000002 0 0 1 1 0 0 0 1 0 
Triangulations 0

TShapes 99
Ve
1.00000000001135e-05
6.12323399573677e-18 4.99919927553953e-34 0.1
0 0

0101101
*
Ed
 1e-07 1 1 1
2  1 1 0 0 3.14159265358979
0

0101000
+99 0 -99 0 *
Ve
1.00000000001135e-05
6.12323399573677e-18 4.99919927553953e-34 -0.1
0 0

0101101
*
Ed
 1.00000000073479e-07 1 1 0
1  1 0 4.71238898038469 7.85398163397448
2  2 1 0 4.71238898038469 7.85398163397448
2  3 2 0 4.71238898038469 7.85398163397448
0

0101000
+97 0 -99 0 *
Ed
 1e-07 1 1 1
2  4 1 0 0 3.14159265358979
0

0101000
+97 0 -97 0 *
Ed
 1.00000000000996e-05 1 1 0
1  2 0 -1.5707963267949 1.5707963267949
2  5 1 0 -1.5707963267949 1.5707963267949
2  6 2 0 -1.5707963267949 1.5707963267949
0

0101000
+97 0 -99 0 *
Wi

0101100
-98 0 -96 0 +95 0 +94 0 *
Fa
0  1e-07 1 0

0111000
+93 0 *
Wi

0101100
-96 0 +94 0 *
Ve
1.00000000000212e-05
-0.06 -2.44929359829471e-18 -0.03
0 0

0101101
*
Ve
1.00000000000212e-05
-0.06 -2.44929359829471e-18 -0.02
0 0

0101101
*
Ed
 1.00000000000163e-05 1 1 0
1  3 0 0 0.01
2  7 4 0 0 0.01
2  8 5 0 0 0.01
0

0101000
+90 0 -89 0 *
Ve
1.00000000000203e-05
-0.05 -2.04107799857892e-18 -0.02
0 0

0101101
*
Ed
 1.5e-07 1 1 0
1  4 0 0.44 0.45
0

0101000
+89 0 -87 0 *
Ve
1.00000000000203e-05
-0.05 -2.04107799857892e-18 -0.03
0 0

0101101
*
Ed
 1.00000000000122e-05 1 1 0
1  5 0 0 0.01
2  9 6 0 0 0.01
2  10 7 0 0 0.01
0

0101000
+85 0 -87 0 *
Ed
 1.5e-07 1 1 0
1  6 0 0.44 0.45
0

0101000
+90 0 -85 0 *
Wi

0101100
-88 0 -86 0 +84 0 +83 0 *
Ve
1.00000000000212e-05
-0.06 -2.44929359829471e-18 0.02
0 0

0101101
*
Ve
1.00000000000212e-05
-0.06 -2.44929359829471e-18 0.03
0 0

0101101
*
Ed
 1.00000000000163e-05 1 1 0
1  7 0 0 0.01
2  7 8 0 0 0.01
2  11 9 0 0 0.01
0

0101000
+81 0 -80 0 *
Ve
1.00000000000203e-05
-0.05 -2.04107799857892e-18 0.02
0 0

0101101
*
Ed
 1.5e-07 1 1 0
1  8 0 0.44 0.45
0

0101000
+81 0 -78 0 *
Ve
1.00000000000203e-05
-0.05 -2.04107799857892e-18 0.03
0 0

0101101
*
Ed
 1.5e-07 1 1 0
1  9 0 0.44 0.45
0

0101000
+80 0 -76 0 *
Ed
 1.00000000000122e-05 1 1 0
1  10 0 0 0.01
2  9 10 0 0 0.01
2  12 11 0 0 0.01
0

0101000
+78 0 -76 0 *
Wi

0101100
-79 0 +77 0 -75 0 +74 0 *
Ve
1.50000000044628e-07
0.05 1.22464679914735e-17 -0.03
0 0

0101101
*
Ve
1.50000000058359e-07
0.06 1.46957615897682e-17 -0.03
0 0

0101101
*
Ed
 1.5e-07 1 1 0
1  11 0 0.55 0.56
0

0101000
+72 0 -71 0 *
Ve
1.50000000044628e-07
0.05 1.22464679914735e-17 -0.02
0 0

0101101
*
Ed
 1.00000000036739e-07 1 1 0
1  12 0 0 0.01
2  13 6 0 0 0.01
2  14 7 0 0 0.01
0

0101000
+72 0 -69 0 *
Ve
1.50000000058359e-07
0.06 1.46957615897682e-17 -0.02
0 0

0101101
*
Ed
 1.5e-07 1 1 0
1  13 0 0.55 0.56
0

0101000
+69 0 -67 0 *
Ed
 1.00000000044087e-07 1 1 0
1  14 0 0 0.01
2  15 4 0 0 0.01
2  16 5 0 0 0.01
0

0101000
+71 0 -67 0 *
Wi

0101100
+70 0 -68 0 -66 0 +65 0 *
Ve
1.50000000044628e-07
0.05 1.22464679914735e-17 0.02
0 0

0101101
*
Ve
1.50000000058359e-07
0.06 1.46957615897682e-17 0.02
0 0

0101101
*
Ed
 1.5e-07 1 1 0
1  15 0 0.55 0.56
0

0101000
+63 0 -62 0 *
Ve
1.50000000044628e-07
0.05 1.22464679914735e-17 0.03
0 0

0101101
*
Ed
 1.00000000036739e-07 1 1 0
1  16 0 0 0.01
2  13 10 0 0 0.01
2  17 11 0 0 0.01
0

0101000
+63 0 -60 0 *
Ve
1.50000000058359e-07
0.06 1.46957615897682e-17 0.03
0 0

0101101
*
Ed
 1.00000000044087e-07 1 1 0
1  17 0 0 0.01
2  15 8 0 0 0.01
2  18 9 0 0 0.01
0

0101000
+62 0 -58 0 *
Ed
 1.5e-07 1 1 0
1  18 0 0.55 0.56
0

0101000
+60 0 -58 0 *
Wi

0101100
+61 0 -59 0 +57 0 -56 0 *
Fa
0  1e-07 3 0

0111000
+91 0 +82 0 +73 0 +64 0 +55 0 *
Ed
 1e-07 1 1 1
2  1 2 0 0 3.14159265358979
0

0101000
+99 0 -99 0 *
Ed
 1e-07 1 1 1
2  4 2 0 0 3.14159265358979
0

0101000
+97 0 -97 0 *
Wi

0101100
-53 0 -96 0 +52 0 +94 0 *
Fa
0  1e-07 2 0

0111000
+51 0 *
Ed
 1e-07 1 1 0
1  19 0 0 3.14159265358979
2  19 4 0 0 3.14159265358979
0

0101000
+67 0 -89 0 *
Ed
 1e-07 1 1 0
1  20 0 0 3.14159265358979
2  20 4 0 0 3.14159265358979
0

0101000
+71 0 -90 0 *
Wi

0101100
-49 0 -65 0 +48 0 +88 0 *
Fa
0  1e-07 4 0

0111000
+47 0 *
Ed
 1e-07 1 1 0
1  21 0 0 3.14159265358979
2  19 5 0 0 3.14159265358979
0

0101000
+67 0 -89 0 *
Ed
 1e-07 1 1 0
1  22 0 0 3.14159265358979
2  20 5 0 0 3.14159265358979
0

0101000
+71 0 -90 0 *
Wi

0101100
-45 0 -65 0 +44 0 +88 0 *
Fa
0  1e-07 5 0

0111000
+43 0 *
Ed
 1e-07 1 1 0
1  23 0 0 3.14159265358979
2  21 6 0 0 3.14159265358979
0

0101000
+69 0 -87 0 *
Wi

0101100
+66 0 -41 0 +86 0 +49 0 *
Fa
0  1e-07 12 0

0111000
+40 0 *
Ed
 1e-07 1 1 0
1  24 0 0 3.14159265358979
2  21 7 0 0 3.14159265358979
0

0101000
+69 0 -87 0 *
Wi

0101100
+66 0 -38 0 +86 0 +45 0 *
Fa
0  1e-07 13 0

0111000
+37 0 *
Ed
 1e-07 1 1 0
1  25 0 0 3.14159265358979
2  22 6 0 0 3.14159265358979
0

0101000
+72 0 -85 0 *
Wi

0101100
-41 0 -68 0 +35 0 +84 0 *
Fa
0  1e-07 6 0

0111000
+34 0 *
Ed
 1e-07 1 1 0
1  26 0 0 3.14159265358979
2  22 7 0 0 3.14159265358979
0

0101000
+72 0 -85 0 *
Wi

0101100
-38 0 -68 0 +32 0 +84 0 *
Fa
0  1e-07 7 0

0111000
+31 0 *
Wi

0101100
+70 0 -35 0 +83 0 +48 0 *
Fa
0  1e-07 14 0

0111000
+29 0 *
Wi

0101100
+70 0 -32 0 +83 0 +44 0 *
Fa
0  1e-07 15 0

0111000
+27 0 *
Ed
 1e-07 1 1 0
1  27 0 0 3.14159265358979
2  19 8 0 0 3.14159265358979
0

0101000
+58 0 -80 0 *
Ed
 1e-07 1 1 0
1  28 0 0 3.14159265358979
2  20 8 0 0 3.14159265358979
0

0101000
+62 0 -81 0 *
Wi

0101100
-25 0 -57 0 +24 0 +79 0 *
Fa
0  1e-07 8 0

0111000
+23 0 *
Ed
 1e-07 1 1 0
1  29 0 0 3.14159265358979
2  19 9 0 0 3.14159265358979
0

0101000
+58 0 -80 0 *
Ed
 1e-07 1 1 0
1  30 0 0 3.14159265358979
2  20 9 0 0 3.14159265358979
0

0101000
+62 0 -81 0 *
Wi

0101100
-21 0 -57 0 +20 0 +79 0 *
Fa
0  1e-07 9 0

0111000
+19 0 *
Ed
 1e-07 1 1 0
1  31 0 0 3.14159265358979
2  22 10 0 0 3.14159265358979
0

0101000
+63 0 -78 0 *
Wi

0101100
+61 0 -17 0 +77 0 +24 0 *
Fa
0  1e-07 16 0

0111000
+16 0 *
Ed
 1e-07 1 1 0
1  32 0 0 3.14159265358979
2  22 11 0 0 3.14159265358979
0

0101000
+63 0 -78 0 *
Wi

0101100
+61 0 -14 0 +77 0 +20 0 *
Fa
0  1e-07 17 0

0111000
+13 0 *
Ed
 1e-07 1 1 0
1  33 0 0 3.14159265358979
2  21 10 0 0 3.14159265358979
0

0101000
+60 0 -76 0 *
Wi

0101100
+56 0 -11 0 +75 0 +25 0 *
Fa
0  1e-07 18 0

0111000
+10 0 *
Ed
 1e-07 1 1 0
1  34 0 0 3.14159265358979
2  21 11 0 0 3.14159265358979
0

0101000
+60 0 -76 0 *
Wi

0101100
+56 0 -8 0 +75 0 +21 0 *
Fa
0  1e-07 19 0

0111000
+7 0 *
Wi

0101100
-11 0 -59 0 +17 0 +74 0 *
Fa
0  1e-07 10 0

0111000
+5 0 *
Wi

0101100
-8 0 -59 0 +14 0 +74 0 *
Fa
0  1e-07 11 0

0111000
+3 0 *
Sh

1101000
-92 0 +54 0 +50 0 +46 0 -42 0 +39 0 -36 0 -33 0 +30 0 -28 0 
+26 0 +22 0 -18 0 -15 0 +12 0 +9 0 -6 0 -4 0 +2 0 *

+1 0 
##EGADS HEADER FILE-REV 1 ##
0
  0  1  19  23  38  18  5
3 7 39
capsAIM
#egadsTessAIM;aflr4AIM;tetgenAIM;pumiAIM
2 14 1
capsMeshLength
 1.000000000000e+00
1 5 1
_body
18
1 5 1
_brch
20
2 8 3
_tParams
 8.660258367972e-03  2.598077510392e-03  2.000000000000e+01 
    2 0 7
1 5 2
_body
4 2 
1 5 2
_brch
15 12 
1 5 7
_hist
4 6 9 12 14 15 18 
1 9 14
__trace__
4 2 6 1 9 1 12 1 14 1 15 1 18 1 
1 7 3
_faceID
4 2 1 
3 8 16
AFLR_GBC
#FARFIELD_UG3_GBC
3 9 8
capsGroup
#farfield
    2 1 7
1 5 2
_body
5 4 
1 5 2
_brch
18 12 
1 5 6
_hist
5 6 9 12 17 18 
1 9 12
__trace__
5 4 6 2 9 2 12 2 17 2 18 2 
1 7 3
_faceID
5 4 1 
3 8 14
AFLR_GBC
#TRANSP_UG3_GBC
3 9 3
capsGroup
#cut
    2 2 7
1 5 2
_body
4 2 
1 5 2
_brch
18 12 
1 5 6
_hist
4 6 9 12 17 18 
1 9 12
__trace__
4 2 6 1 9 1 12 1 17 1 18 3 
1 7 3
_faceID
4 2 2 
3 8 16
AFLR_GBC
#FARFIELD_UG3_GBC
3 9 8
capsGroup
#farfield
    2 3 7
1 5 2
_body
1 3 
1 5 2
_brch
15 12 
1 5 7
_hist
1 3 11 12 14 15 18 
1 9 14
__trace__
1 1 3 1 11 1 12 3 14 3 15 3 18 4 
1 7 3
_faceID
1 3 1 
3 8 14
AFLR_GBC
#TRANSP_UG3_GBC
3 9 4
capsGroup
#wire
    2 4 7
1 5 2
_body
1 3 
1 5 2
_brch
18 12 
1 5 6
_hist
1 3 11 12 17 18 
1 9 12
__trace__
1 1 3 1 11 1 12 3 17 3 18 5 
1 7 3
_faceID
1 3 3 
3 8 14
AFLR_GBC
#TRANSP_UG3_GBC
3 9 4
capsGroup
#wire
    2 5 7
1 5 2
_body
1 2 
1 5 2
_brch
15 12 
1 5 7
_hist
1 3 11 12 14 15 18 
1 9 14
__trace__
1 3 3 2 11 2 12 4 14 4 15 4 18 6 
1 7 3
_faceID
1 2 1 
3 8 14
AFLR_GBC
#TRANSP_UG3_GBC
3 9 4
capsGroup
#wire
    2 6 7
1 5 2
_body
1 2 
1 5 2
_brch
18 12 
1 5 6
_hist
1 3 11 12 17 18 
1 9 12
__trace__
1 3 3 2 11 2 12 4 17 4 18 7 
1 7 3
_faceID
1 2 3 
3 8 14
AFLR_GBC
#TRANSP_UG3_GBC
3 9 4
capsGroup
#wire
    2 7 7
1 5 2
_body
2 3 
1 5 2
_brch
15 12 
1 5 7
_hist
2 3 11 12 14 15 18 
1 9 14
__trace__
2 1 3 5 11 5 12 5 14 5 15 5 18 8 
1 7 3
_faceID
2 3 1 
3 8 14
AFLR_GBC
#TRANSP_UG3_GBC
3 9 4
capsGroup
#wire
    2 8 7
1 5 2
_body
2 3 
1 5 2
_brch
18 12 
1 5 6
_hist
2 3 11 12 17 18 
1 9 12
__trace__
2 1 3 5 11 5 12 5 17 5 18 9 
1 7 3
_faceID
2 3 3 
3 8 14
AFLR_GBC
#TRANSP_UG3_GBC
3 9 4
capsGroup
#wire
    2 9 7
1 5 2
_body
1 1 
1 5 2
_brch
15 12 
1 5 7
_hist
1 3 11 12 14 15 18 
1 9 14
__trace__
1 4 3 4 11 4 12 6 14 6 15 6 18 10 
1 7 3
_faceID
1 1 1 
3 8 14
AFLR_GBC
#TRANSP_UG3_GBC
3 9 4
capsGroup
#wire
    2 10 7
1 5 2
_body
1 1 
1 5 2
_brch
18 12 
1 5 6
_hist
1 3 11 12 17 18 
1 9 12
__trace__
1 4 3 4 11 4 12 6 17 6 18 11 
1 7 3
_faceID
1 1 3 
3 8 14
AFLR_GBC
#TRANSP_UG3_GBC
3 9 4
capsGroup
#wire
    2 11 7
1 5 2
_body
1 3 
1 5 2
_brch
15 12 
1 5 8
_hist
1 3 8 9 12 14 15 18 
1 9 16
__trace__
1 1 3 1 8 1 9 3 12 7 14 7 15 7 18 12 
1 7 3
_faceID
1 3 2 
3 8 14
AFLR_GBC
#TRANSP_UG3_GBC
3 9 4
capsGroup
#wire
    2 12 7
1 5 2
_body
1 3 
1 5 2
_brch
18 12 
1 5 7
_hist
1 3 8 9 12 17 18 
1 9 14
__trace__
1 1 3 1 8 1 9 3 12 7 17 7 18 13 
1 7 3
_faceID
1 3 4 
3 8 14
AFLR_GBC
#TRANSP_UG3_GBC
3 9 4
capsGroup
#wire
    2 13 7
1 5 2
_body
1 1 
1 5 2
_brch
15 12 
1 5 8
_hist
1 3 8 9 12 14 15 18 
1 9 16
__trace__
1 4 3 4 8 4 9 6 12 8 14 8 15 8 18 14 
1 7 3
_faceID
1 1 2 
3 8 14
AFLR_GBC
#TRANSP_UG3_GBC
3 9 4
capsGroup
#wire
    2 14 7
1 5 2
_body
1 1 
1 5 2
_brch
18 12 
1 5 7
_hist
1 3 8 9 12 17 18 
1 9 14
__trace__
1 4 3 4 8 4 9 6 12 8 17 8 18 15 
1 7 3
_faceID
1 1 4 
3 8 14
AFLR_GBC
#TRANSP_UG3_GBC
3 9 4
capsGroup
#wire
    2 15 7
1 5 2
_body
1 2 
1 5 2
_brch
15 12 
1 5 8
_hist
1 3 8 9 12 14 15 18 
1 9 16
__trace__
1 3 3 2 8 2 9 4 12 9 14 9 15 9 18 16 
1 7 3
_faceID
1 2 2 
3 8 14
AFLR_GBC
#TRANSP_UG3_GBC
3 9 4
capsGroup
#wire
    2 16 7
1 5 2
_body
1 2 
1 5 2
_brch
18 12 
1 5 7
_hist
1 3 8 9 12 17 18 
1 9 14
__trace__
1 3 3 2 8 2 9 4 12 9 17 9 18 17 
1 7 3
_faceID
1 2 4 
3 8 14
AFLR_GBC
#TRANSP_UG3_GBC
3 9 4
capsGroup
#wire
    2 17 7
1 5 2
_body
2 3 
1 5 2
_brch
15 12 
1 5 8
_hist
2 3 8 9 12 14 15 18 
1 9 16
__trace__
2 1 3 5 8 5 9 5 12 10 14 10 15 10 18 18 
1 7 3
_faceID
2 3 2 
3 8 14
AFLR_GBC
#TRANSP_UG3_GBC
3 9 4
capsGroup
#wire
    2 18 7
1 5 2
_body
2 3 
1 5 2
_brch
18 12 
1 5 7
_hist
2 3 8 9 12 17 18 
1 9 14
__trace__
2 1 3 5 8 5 9 5 12 10 17 10 18 19 
1 7 3
_faceID
2 3 4 
3 8 14
AFLR_GBC
#TRANSP_UG3_GBC
3 9 4
capsGroup
#wire
    4 0 4
1 5 2
_body
4 -3 
1 7 5
_edgeID
0 0 4 2 4 
1 6 1
_nface
1
1 9 2
__trace__
18 1 
    4 1 4
1 5 2
_body
18 0 
1 7 5
_edgeID
4 2 4 2 2 
1 6 1
_nface
3
1 9 2
__trace__
18 2 
    4 2 4
1 5 2
_body
4 -3 
1 7 5
_edgeID
0 0 4 2 1 
1 6 1
_nface
1
1 9 2
__trace__
18 3 
    4 3 4
1 5 2
_body
18 0 
1 7 5
_edgeID
4 2 4 2 1 
1 6 1
_nface
3
1 9 2
__trace__
18 4 
    4 4 4
1 5 2
_body
18 0 
1 7 5
_edgeID
1 3 1 3 1 
1 6 1
_nface
3
1 9 2
__trace__
18 5 
    4 5 4
1 5 2
_body
18 0 
1 7 5
_edgeID
1 2 1 2 1 
1 6 1
_nface
3
1 9 2
__trace__
18 6 
    4 6 4
1 5 2
_body
18 0 
1 7 5
_edgeID
2 3 2 3 1 
1 6 1
_nface
3
1 9 2
__trace__
18 7 
    4 7 4
1 5 2
_body
18 0 
1 7 5
_edgeID
1 1 1 1 1 
1 6 1
_nface
3
1 9 2
__trace__
18 8 
    4 8 4
1 5 2
_body
18 0 
1 7 5
_edgeID
1 3 1 3 2 
1 6 1
_nface
3
1 9 2
__trace__
18 9 
    4 9 4
1 5 2
_body
18 0 
1 7 5
_edgeID
1 1 1 1 2 
1 6 1
_nface
3
1 9 2
__trace__
18 10 
    4 10 4
1 5 2
_body
18 0 
1 7 5
_edgeID
1 2 1 2 2 
1 6 1
_nface
3
1 9 2
__trace__
18 11 
    4 11 4
1 5 2
_body
18 0 
1 7 5
_edgeID
2 3 2 3 2 
1 6 1
_nface
3
1 9 2
__trace__
18 12 
    4 12 4
1 5 2
_body
18 0 
1 7 5
_edgeID
1 1 1 1 3 
1 6 1
_nface
3
1 9 2
__trace__
18 13 
    4 13 4
1 5 2
_body
18 0 
1 7 5
_edgeID
2 3 2 3 3 
1 6 1
_nface
3
1 9 2
__trace__
18 14 
    4 14 4
1 5 2
_body
18 0 
1 7 5
_edgeID
1 2 1 2 3 
1 6 1
_nface
3
1 9 2
__trace__
18 15 
    4 15 4
1 5 2
_body
18 0 
1 7 5
_edgeID
1 3 1 3 3 
1 6 1
_nface
3
1 9 2
__trace__
18 16 
    4 16 4
1 5 2
_body
18 0 
1 7 5
_edgeID
1 1 1 1 4 
1 6 1
_nface
3
1 9 2
__trace__
18 17 
    4 17 4
1 5 2
_body
18 0 
1 7 5
_edgeID
2 3 2 3 4 
1 6 1
_nface
3
1 9 2
__trace__
18 18 
    4 18 4
1 5 2
_body
18 0 
1 7 5
_edgeID
1 3 1 3 4 
1 6 1
_nface
3
1 9 2
__trace__
18 19 
    4 19 4
1 5 2
_body
18 0 
1 7 5
_edgeID
1 2 1 2 4 
1 6 1
_nface
3
1 9 2
__trace__
18 20 
    4 20 4
1 5 2
_body
4 -3 
1 7 5
_edgeID
0 0 4 2 3 
1 6 1
_nface
1
1 9 2
__trace__
18 21 
    4 21 4
1 5 2
_body
4 -3 
1 7 5
_edgeID
0 0 4 2 2 
1 6 1
_nface
1
1 9 2
__trace__
18 22 
    4 22 4
1 5 2
_body
1 20003 
1 7 5
_edgeID
1 2 1 3 1 
1 9 14
__trace__
1 1 3 1 11 1 12 21 14 21 15 21 18 23 
1 6 1
_nface
2
    4 23 4
1 5 2
_body
1 30001 
1 7 5
_edgeID
1 1 1 3 1 
1 9 14
__trace__
1 3 3 3 11 3 12 22 14 22 15 22 18 24 
1 6 1
_nface
2
    4 24 4
1 5 2
_body
1 30002 
1 7 5
_edgeID
1 2 1 3 3 
1 9 12
__trace__
1 1 3 1 11 1 12 21 17 21 18 25 
1 6 1
_nface
2
    4 25 4
1 5 2
_body
1 10003 
1 7 5
_edgeID
1 1 1 3 3 
1 9 12
__trace__
1 3 3 3 11 3 12 22 17 22 18 26 
1 6 1
_nface
2
    4 26 4
1 5 2
_body
3 30002 
1 7 5
_edgeID
1 2 2 3 1 
1 9 12
__trace__
3 6 11 6 12 23 14 23 15 23 18 27 
1 6 1
_nface
2
    4 27 4
1 5 2
_body
3 20003 
1 7 5
_edgeID
1 2 2 3 3 
1 9 10
__trace__
3 6 11 6 12 23 17 23 18 28 
1 6 1
_nface
2
    4 28 4
1 5 2
_body
3 10003 
1 7 5
_edgeID
1 1 2 3 1 
1 9 12
__trace__
3 9 11 9 12 24 14 24 15 24 18 29 
1 6 1
_nface
2
    4 29 4
1 5 2
_body
3 30001 
1 7 5
_edgeID
1 1 2 3 3 
1 9 10
__trace__
3 9 11 9 12 24 17 24 18 30 
1 6 1
_nface
2
    4 30 4
1 5 2
_body
1 20003 
1 7 5
_edgeID
1 2 1 3 2 
1 9 16
__trace__
1 1 3 1 8 1 9 13 12 25 14 25 15 25 18 31 
1 6 1
_nface
2
    4 31 4
1 5 2
_body
1 30001 
1 7 5
_edgeID
1 1 1 3 2 
1 9 16
__trace__
1 3 3 3 8 3 9 14 12 26 14 26 15 26 18 32 
1 6 1
_nface
2
    4 32 4
1 5 2
_body
1 30002 
1 7 5
_edgeID
1 2 1 3 4 
1 9 14
__trace__
1 1 3 1 8 1 9 13 12 25 17 25 18 33 
1 6 1
_nface
2
    4 33 4
1 5 2
_body
1 10003 
1 7 5
_edgeID
1 1 1 3 4 
1 9 14
__trace__
1 3 3 3 8 3 9 14 12 26 17 26 18 34 
1 6 1
_nface
2
    4 34 4
1 5 2
_body
3 10003 
1 7 5
_edgeID
1 1 2 3 2 
1 9 14
__trace__
3 9 8 9 9 16 12 27 14 27 15 27 18 35 
1 6 1
_nface
2
    4 35 4
1 5 2
_body
3 30001 
1 7 5
_edgeID
1 1 2 3 4 
1 9 12
__trace__
3 9 8 9 9 16 12 27 17 27 18 36 
1 6 1
_nface
2
    4 36 4
1 5 2
_body
3 30002 
1 7 5
_edgeID
1 2 2 3 2 
1 9 14
__trace__
3 6 8 6 9 15 12 28 14 28 15 28 18 37 
1 6 1
_nface
2
    4 37 4
1 5 2
_body
3 20003 
1 7 5
_edgeID
1 2 2 3 4 
1 9 12
__trace__
3 6 8 6 9 15 12 28 17 28 18 38 
1 6 1
_nface
2
    5 0 3
1 9 12
__trace__
4 1 6 1 9 1 12 1 17 1 18 1 
1 7 1
_nodeID
1
1 6 1
_nedge
4
    5 1 3
1 9 12
__trace__
4 2 6 2 9 2 12 2 17 2 18 2 
1 7 1
_nodeID
2
1 6 1
_nedge
4
    5 2 3
1 9 12
__trace__
1 4 3 4 11 4 12 3 17 3 18 3 
1 7 1
_nodeID
3
1 6 1
_nedge
4
    5 3 3
1 9 12
__trace__
1 1 3 1 11 1 12 4 17 4 18 4 
1 7 1
_nodeID
4
1 6 1
_nedge
4
    5 4 3
1 9 12
__trace__
2 1 3 6 11 6 12 5 17 5 18 5 
1 7 1
_nodeID
5
1 6 1
_nedge
4
    5 5 3
1 9 12
__trace__
2 4 3 8 11 8 12 6 17 6 18 6 
1 7 1
_nodeID
6
1 6 1
_nedge
4
    5 6 3
1 9 14
__trace__
1 4 3 4 8 4 9 3 12 7 17 7 18 7 
1 7 1
_nodeID
7
1 6 1
_nedge
4
    5 7 3
1 9 14
__trace__
1 1 3 1 8 1 9 4 12 8 17 8 18 8 
1 7 1
_nodeID
8
1 6 1
_nedge
4
    5 8 3
1 9 14
__trace__
2 4 3 8 8 8 9 6 12 9 17 9 18 9 
1 7 1
_nodeID
9
1 6 1
_nedge
4
    5 9 3
1 9 14
__trace__
2 1 3 6 8 6 9 5 12 10 17 10 18 10 
1 7 1
_nodeID
10
1 6 1
_nedge
4
    5 10 3
1 9 12
__trace__
2 3 3 7 11 7 12 11 17 11 18 11 
1 7 1
_nodeID
11
1 6 1
_nedge
4
    5 11 3
1 9 12
__trace__
1 3 3 3 11 3 12 12 17 12 18 12 
1 7 1
_nodeID
12
1 6 1
_nedge
4
    5 12 3
1 9 12
__trace__
2 2 3 5 11 5 12 13 17 13 18 13 
1 7 1
_nodeID
13
1 6 1
_nedge
4
    5 13 3
1 9 12
__trace__
1 2 3 2 11 2 12 14 17 14 18 14 
1 7 1
_nodeID
14
1 6 1
_nedge
4
    5 14 3
1 9 14
__trace__
2 3 3 7 8 7 9 7 12 15 17 15 18 15 
1 7 1
_nodeID
15
1 6 1
_nedge
4
    5 15 3
1 9 14
__trace__
1 3 3 3 8 3 9 8 12 16 17 16 18 16 
1 7 1
_nodeID
16
1 6 1
_nedge
4
    5 16 3
1 9 14
__trace__
2 2 3 5 8 5 9 9 12 17 17 17 18 17 
1 7 1
_nodeID
17
1 6 1
_nedge
4
    5 17 3
1 9 14
__trace__
1 2 3 2 8 2 9 10 12 18 17 18 18 18 
1 7 1
_nodeID
18
1 6 1
_nedge
4
    0 0 0
