DBRep_DrawableShape

CASCADE Topology V1, (c) Matra-Datavision
Locations 0
Curve2ds 22
1 0 1.5707963267948966 1 0 
1 3.1415926535897931 0 0 1 
1 3.1415926535897931 0 0 1 
1 0 -1.5707963267948966 1 0 
1 6.2831853071795862 -6.2831853071795862 0 1 
1 6.2831853071795862 -6.2831853071795862 0 1 
1 3.1415926535897931 0 0 1 
1 3.1415926535897931 0 0 1 
1 3.1415926535897931 0 0 1 
1 3.1415926535897931 0 0 1 
1 6.2831853071795862 -0 0 1 
1 0 -0 0 1 
1 6.2831853071795862 -0 0 1 
1 0 -0 0 1 
1 0 0 1 0 
1 0 0.25 1 0 
1 0 0.25 1 0 
1 0 0 1 0 
1 0 0.25 1 0 
1 0 0.25 1 0 
1 0 0 1 0 
1 0 0 1 0 
Curves 18
7 0 0  8 9 2  -2.2204460492503131e-16 -4.9303806576313238e-32 -2  -0.78539816339744306 9.6183534686089834e-17 -1.9999999999999993  -1.5708056418833856 1.9236821014150593e-16 -1.647434430984998  -2.1715685144107759 2.6594044303023883e-16 -0.94293688829022071  -2.4036114580004759 2.9435750784341129e-16 -1.9761969838327767e-14  -2.1715685144107733 2.6594044303023908e-16 0.94293688829025324  -1.5708056418833902 1.9236821014150571e-16 1.6474344309849802  -0.7853981633974414 9.6183534686089932e-17 2.0000000000000049  -2.2204460492503131e-16 -4.9303806576313238e-32 2 
 -1.5707963267948966 9 1.5707963267948966 9
2 0 0 0 -2.4492935982947064e-16 -1 0 1 -2.4492935982947064e-16 0 0 0 1 2
7 0 0  1 2 2  -1 1.2246467991473532e-16 -0.125  -1 1.2246467991473532e-16 0.125 
 0 2 0.25 2
1 -1.5 0 0.125 1 0 -0 
7 0 0  1 2 2  -0.75 9.1848509936051484e-17 -0.125  -0.75 9.1848509936051484e-17 0.125 
 0 2 0.25 2
1 -1.5 0 -0.125 1 0 -0 
1 -1.5 0 -0.125 1 0 -0 
1 0.75 -1.8369701987210297e-16 -0.125 0 0 1 
1 -1.5 0 0.125 1 0 -0 
1 1 -2.4492935982947064e-16 -0.125 0 0 1 
2 0 0 -0.125 0 0 1 1 0 0 0 1 0 1
2 0 0 0.125 0 0 1 1 0 0 0 1 0 1
2 0 0 0.125 0 0 1 1 0 0 0 1 0 1
2 0 0 -0.125 0 0 1 1 0 0 0 1 0 1
2 0 0 0.125 0 0 1 1 0 0 0 1 0 0.75
2 0 0 0.125 0 0 1 1 0 0 0 1 0 0.75
2 0 0 -0.125 0 0 1 1 0 0 0 1 0 0.75
2 0 0 -0.125 0 0 1 1 0 0 0 1 0 0.75
Polygon3D 0
PolygonOnTriangulations 0
Surfaces 11
10 3.1415926535897931 6.2831853071795862 -1.5707963267948966 1.5707963267948966
4 0 0 0 0 0 1 1 0 -0 -0 1 0 2
10 3.1415926535897931 6.2831853071795862 -1.5707963267948966 1.5707963267948966
4 0 0 0 -0 -0 1 1 -0 -0 -0 -1 -0 2
1 -3 0 -3 -0 1 0 0 0 1 1 0 -0 
10 3.1415926535897931 6.2831853071795862 0 0.25
2 0 0 -0.125 0 0 1 1 0 0 0 1 0 1
10 0 3.1415926535897931 0 0.25
2 0 0 -0.125 0 0 1 1 0 0 0 1 0 1
10 3.1415926535897931 6.2831853071795862 0 0.25
2 0 0 -0.125 0 0 1 1 0 0 0 1 0 0.75
10 0 3.1415926535897931 0 0.25
2 0 0 -0.125 0 0 1 1 0 0 0 1 0 0.75
1 0 0 0.125 0 0 1 1 0 0 0 1 0 
1 0 0 0.125 0 0 1 1 0 0 0 1 0 
1 0 0 -0.125 0 0 1 1 0 0 0 1 0 
1 0 0 -0.125 0 0 1 1 0 0 0 1 0 
Triangulations 0

TShapes 58
Ve
1.00000000010011e-05
1.22464679914735e-16 -9.99839855107905e-33 2
0 0

0101101
*
Ed
 1e-07 1 1 1
2  1 1 0 3.14159265358979 6.28318530717959
0

0101000
+58 0 -58 0 *
Ve
1.00000000010011e-05
1.22464679914735e-16 -9.99839855107905e-33 -2
0 0

0101101
*
Ed
 1.00000000010011e-05 1 1 0
1  1 0 -1.5707963267949 1.5707963267949
2  2 1 0 -1.5707963267949 1.5707963267949
2  3 2 0 -1.5707963267949 1.5707963267949
0

0101000
+56 0 -58 0 *
Ed
 1e-07 1 1 1
2  4 1 0 3.14159265358979 6.28318530717959
0

0101000
+56 0 -56 0 *
Ed
 1.00000001469576e-07 1 1 0
1  2 0 4.71238898038469 7.85398163397448
2  5 1 0 4.71238898038469 7.85398163397448
2  6 2 0 4.71238898038469 7.85398163397448
0

0101000
+56 0 -58 0 *
Wi

0101100
-57 0 -55 0 +54 0 +53 0 *
Fa
0  1e-07 1 0

0111000
+52 0 *
Wi

0101100
-53 0 +55 0 *
Ve
1e-05
-1 1.22464679914735e-16 -0.125
0 0

0101101
*
Ve
1e-05
-1 1.22464679914735e-16 0.125
0 0

0101101
*
Ed
 1e-05 1 1 0
1  3 0 0 0.25
2  7 4 0 0 0.25
2  8 5 0 0 0.25
0

0101000
+49 0 -48 0 *
Ve
1e-05
-0.75 9.18485099360515e-17 0.125
0 0

0101101
*
Ed
 1.5e-07 1 1 0
1  4 0 0.5 0.75
0

0101000
+48 0 -46 0 *
Ve
1e-05
-0.75 9.18485099360515e-17 -0.125
0 0

0101101
*
Ed
 1e-05 1 1 0
1  5 0 0 0.25
2  9 6 0 0 0.25
2  10 7 0 0 0.25
0

0101000
+44 0 -46 0 *
Ed
 1.5e-07 1 1 0
1  6 0 0.5 0.75
0

0101000
+49 0 -44 0 *
Wi

0101100
-47 0 -45 0 +43 0 +42 0 *
Ve
1.50000000183697e-07
0.75 -1.83697019872103e-16 -0.125
0 0

0101101
*
Ve
1.50000000244929e-07
1 -2.44929359829471e-16 -0.125
0 0

0101101
*
Ed
 1.5e-07 1 1 0
1  7 0 2.25 2.5
0

0101000
+40 0 -39 0 *
Ve
1.50000000183697e-07
0.75 -1.83697019872103e-16 0.125
0 0

0101101
*
Ed
 1.00000000183697e-07 1 1 0
1  8 0 0 0.25
2  11 6 0 0 0.25
2  12 7 0 0 0.25
0

0101000
+40 0 -37 0 *
Ve
1.50000000244929e-07
1 -2.44929359829471e-16 0.125
0 0

0101101
*
Ed
 1.5e-07 1 1 0
1  9 0 2.25 2.5
0

0101000
+37 0 -35 0 *
Ed
 1.00000000244929e-07 1 1 0
1  10 0 0 0.25
2  13 4 0 0 0.25
2  14 5 0 0 0.25
0

0101000
+39 0 -35 0 *
Wi

0101100
+38 0 -36 0 -34 0 +33 0 *
Fa
0  1e-07 3 0

0111000
+50 0 +41 0 +32 0 *
Ed
 1e-07 1 1 1
2  1 2 0 3.14159265358979 6.28318530717959
0

0101000
+58 0 -58 0 *
Ed
 1e-07 1 1 1
2  4 2 0 3.14159265358979 6.28318530717959
0

0101000
+56 0 -56 0 *
Wi

0101100
-30 0 -55 0 +29 0 +53 0 *
Fa
0  1e-07 2 0

0111000
+28 0 *
Ed
 1.00000000400297e-07 1 1 0
1  11 0 3.14159265358979 6.28318530717959
2  15 4 0 3.14159265358979 6.28318530717959
0

0101000
+49 0 -39 0 *
Ed
 1.00000000400297e-07 1 1 0
1  12 0 3.14159265358979 6.28318530717959
2  16 4 0 3.14159265358979 6.28318530717959
0

0101000
+48 0 -35 0 *
Wi

0101100
+26 0 +33 0 -25 0 -47 0 *
Fa
0  1e-07 4 0

0111000
+24 0 *
Ed
 1e-07 1 1 0
1  13 0 0 3.14159265358979
2  17 5 0 0 3.14159265358979
0

0101000
+35 0 -48 0 *
Ed
 1e-07 1 1 0
1  14 0 0 3.14159265358979
2  18 5 0 0 3.14159265358979
0

0101000
+39 0 -49 0 *
Wi

0101100
-22 0 -33 0 +21 0 +47 0 *
Fa
0  1e-07 5 0

0111000
+20 0 *
Ed
 1.00000000248253e-07 1 1 0
1  15 0 3.14159265358979 6.28318530717959
2  19 6 0 3.14159265358979 6.28318530717959
0

0101000
+46 0 -37 0 *
Wi

0101100
+25 0 -45 0 -18 0 -34 0 *
Fa
0  1e-07 8 0

0111000
+17 0 *
Ed
 1.00000000055511e-07 1 1 0
1  16 0 0 3.14159265358979
2  20 7 0 0 3.14159265358979
0

0101000
+37 0 -46 0 *
Wi

0101100
+34 0 -15 0 +45 0 +22 0 *
Fa
0  1e-07 9 0

0111000
+14 0 *
Ed
 1.00000000248253e-07 1 1 0
1  17 0 3.14159265358979 6.28318530717959
2  21 6 0 3.14159265358979 6.28318530717959
0

0101000
+44 0 -40 0 *
Wi

0101100
+12 0 +36 0 -18 0 -43 0 *
Fa
0  1e-07 6 0

0111000
+11 0 *
Ed
 1.00000000055511e-07 1 1 0
1  18 0 0 3.14159265358979
2  22 7 0 0 3.14159265358979
0

0101000
+40 0 -44 0 *
Wi

0101100
-15 0 -36 0 +9 0 +43 0 *
Fa
0  1e-07 7 0

0111000
+8 0 *
Wi

0101100
+26 0 -42 0 -12 0 -38 0 *
Fa
0  1e-07 10 0

0111000
+6 0 *
Wi

0101100
+38 0 -9 0 +42 0 +21 0 *
Fa
0  1e-07 11 0

0111000
+4 0 *
Sh

0101000
+51 0 +31 0 -27 0 -23 0 +19 0 -16 0 +13 0 +10 0 -7 0 +5 0 
-3 0 *
Co

1100000
+2 0 *

+1 0 
##EGADS HEADER FILE-REV 1 ##
0
  0  1  11  13  22  10  5
3 7 39
capsAIM
#egadsTessAIM;aflr4AIM;tetgenAIM;pumiAIM
2 14 1
capsMeshLength
 1.000000000000e+00
1 5 1
_body
19
1 5 1
_brch
21
2 8 3
_tParams
 1.732050850870e-01  5.196152552610e-02  2.000000000000e+01 
    2 0 6
1 5 2
_body
4 1 
1 5 2
_brch
9 6 
1 5 6
_hist
4 6 9 10 13 19 
1 7 3
_faceID
4 1 1 
3 9 3
capsGroup
#box
3 8 16
AFLR_GBC
#FARFIELD_UG3_GBC
    2 1 6
1 5 2
_body
5 3 
1 5 2
_brch
16 6 
1 5 6
_hist
5 6 15 17 18 19 
1 7 3
_faceID
5 3 1 
3 9 3
capsGroup
#box
3 8 14
AFLR_GBC
#TRANSP_UG3_GBC
    2 2 6
1 5 2
_body
4 1 
1 5 2
_brch
16 6 
1 5 6
_hist
4 6 15 17 18 19 
1 7 3
_faceID
4 1 2 
3 9 3
capsGroup
#box
3 8 16
AFLR_GBC
#FARFIELD_UG3_GBC
    2 3 6
1 5 2
_body
1 4 
1 5 2
_brch
13 3 
1 5 5
_hist
1 3 12 13 19 
1 7 3
_faceID
1 4 1 
3 9 3
capsGroup
#box
3 8 14
AFLR_GBC
#TRANSP_UG3_GBC
    2 4 6
1 5 2
_body
1 3 
1 5 2
_brch
18 3 
1 5 5
_hist
1 3 17 18 19 
1 7 3
_faceID
1 3 1 
3 9 3
capsGroup
#box
3 8 14
AFLR_GBC
#TRANSP_UG3_GBC
    2 5 6
1 5 2
_body
1 2 
1 5 2
_brch
13 3 
1 5 5
_hist
1 3 12 13 19 
1 7 3
_faceID
1 2 1 
3 9 3
capsGroup
#box
3 8 14
AFLR_GBC
#TRANSP_UG3_GBC
    2 6 6
1 5 2
_body
1 2 
1 5 2
_brch
18 3 
1 5 5
_hist
1 3 17 18 19 
1 7 3
_faceID
1 2 2 
3 9 3
capsGroup
#box
3 8 14
AFLR_GBC
#TRANSP_UG3_GBC
    2 7 6
1 5 2
_body
2 4 
1 5 2
_brch
13 3 
1 5 5
_hist
2 3 12 13 19 
1 7 3
_faceID
2 4 1 
3 9 3
capsGroup
#box
3 8 14
AFLR_GBC
#TRANSP_UG3_GBC
    2 8 6
1 5 2
_body
2 3 
1 5 2
_brch
18 3 
1 5 5
_hist
2 3 17 18 19 
1 7 3
_faceID
2 3 1 
3 9 3
capsGroup
#box
3 8 14
AFLR_GBC
#TRANSP_UG3_GBC
    2 9 6
1 5 2
_body
1 1 
1 5 2
_brch
13 3 
1 5 5
_hist
1 3 12 13 19 
1 7 3
_faceID
1 1 1 
3 9 3
capsGroup
#box
3 8 14
AFLR_GBC
#TRANSP_UG3_GBC
    2 10 6
1 5 2
_body
1 1 
1 5 2
_brch
18 3 
1 5 5
_hist
1 3 17 18 19 
1 7 3
_faceID
1 1 2 
3 9 3
capsGroup
#box
3 8 14
AFLR_GBC
#TRANSP_UG3_GBC
    4 0 3
1 5 2
_body
4 -3 
1 7 5
_edgeID
0 0 4 1 4 
1 6 1
_nface
1
    4 1 3
1 5 2
_body
4 101 
1 7 5
_edgeID
4 1 4 1 1 
1 6 1
_nface
3
    4 2 3
1 5 2
_body
4 -3 
1 7 5
_edgeID
0 0 4 1 1 
1 6 1
_nface
1
    4 3 3
1 5 2
_body
4 101 
1 7 5
_edgeID
4 1 4 1 2 
1 6 1
_nface
3
    4 4 3
1 5 2
_body
17 0 
1 7 5
_edgeID
1 3 5 3 1 
1 6 1
_nface
3
    4 5 3
1 5 2
_body
17 0 
1 7 5
_edgeID
1 2 5 3 1 
1 6 1
_nface
3
    4 6 3
1 5 2
_body
17 0 
1 7 5
_edgeID
2 3 5 3 1 
1 6 1
_nface
3
    4 7 3
1 5 2
_body
17 0 
1 7 5
_edgeID
1 1 5 3 1 
1 6 1
_nface
3
    4 8 3
1 5 2
_body
17 0 
1 7 5
_edgeID
1 1 5 3 2 
1 6 1
_nface
3
    4 9 3
1 5 2
_body
17 0 
1 7 5
_edgeID
2 3 5 3 2 
1 6 1
_nface
3
    4 10 3
1 5 2
_body
17 0 
1 7 5
_edgeID
1 2 5 3 2 
1 6 1
_nface
3
    4 11 3
1 5 2
_body
17 0 
1 7 5
_edgeID
1 3 5 3 2 
1 6 1
_nface
3
    4 12 3
1 5 2
_body
4 -3 
1 7 5
_edgeID
0 0 4 1 3 
1 6 1
_nface
1
    4 13 3
1 5 2
_body
4 -3 
1 7 5
_edgeID
0 0 4 1 2 
1 6 1
_nface
1
    4 14 3
1 5 2
_body
1 104 
1 7 5
_edgeID
1 1 1 4 1 
1 6 1
_nface
2
    4 15 3
1 5 2
_body
1 402 
1 7 5
_edgeID
1 2 1 4 1 
1 6 1
_nface
2
    4 16 3
1 5 2
_body
1 203 
1 7 5
_edgeID
1 2 1 3 1 
1 6 1
_nface
2
    4 17 3
1 5 2
_body
1 301 
1 7 5
_edgeID
1 1 1 3 1 
1 6 1
_nface
2
    4 18 3
1 5 2
_body
3 0 
1 7 5
_edgeID
1 2 2 4 1 
1 6 1
_nface
2
    4 19 3
1 5 2
_body
3 0 
1 7 5
_edgeID
1 2 2 3 1 
1 6 1
_nface
2
    4 20 3
1 5 2
_body
3 0 
1 7 5
_edgeID
1 1 2 4 1 
1 6 1
_nface
2
    4 21 3
1 5 2
_body
3 0 
1 7 5
_edgeID
1 1 2 3 1 
1 6 1
_nface
2
    5 0 2
1 7 1
_nodeID
1
1 6 1
_nedge
4
    5 1 2
1 7 1
_nodeID
2
1 6 1
_nedge
4
    5 2 2
1 7 1
_nodeID
3
1 6 1
_nedge
4
    5 3 2
1 7 1
_nodeID
4
1 6 1
_nedge
4
    5 4 2
1 7 1
_nodeID
5
1 6 1
_nedge
4
    5 5 2
1 7 1
_nodeID
6
1 6 1
_nedge
4
    5 6 2
1 7 1
_nodeID
7
1 6 1
_nedge
4
    5 7 2
1 7 1
_nodeID
8
1 6 1
_nedge
4
    5 8 2
1 7 1
_nodeID
9
1 6 1
_nedge
4
    5 9 2
1 7 1
_nodeID
10
1 6 1
_nedge
4
    0 0 0
