DBRep_DrawableShape

CASCADE Topology V1, (c) Matra-Datavision
Locations 0
Curve2ds 18
1 0 1.5707963267948966 1 0 
1 0 -6.2831853071795862 0 1 
1 2.4492935982947064e-16 -6.2831853071795862 0 1 
1 0 -1.5707963267948966 1 0 
1 3.1415926535897931 0 0 1 
1 3.1415926535897931 0 0 1 
1 3.1415926535897931 0 0 1 
1 3.1415926535897931 0 0 1 
1 3.1415926535897931 0 0 1 
1 3.1415926535897931 0 0 1 
1 0 -0 0 1 
1 0 -0 0 1 
1 0 -0 0 1 
1 0 -0 0 1 
1 0 3.1415926535897931 1 0 
1 0 3.1415926535897931 1 0 
1 0 0 1 0 
1 0 6.2831853071795862 1 0 
Curves 10
2 0 0 0 2.4492935982947064e-16 -1 0 1 2.4492935982947064e-16 -0 -0 -0 1 0.042000000000000003
7 0 0  6 7 2  -6.9388939039072284e-18 0 -0.041999999999999996  -0.021991148575128641 -2.6931389712105237e-18 -0.042000000000000044  -0.043959192175264228 -5.3834483990540564e-18 -0.028327005204752207  -0.055264752418932507 -6.7679802155516835e-18 -7.6327832942979561e-17  -0.043959192175264276 -5.3834483990540564e-18 0.028327005204752339  -0.021991148575128596 -2.6931389712105199e-18 0.041999999999999975  -6.9388939039072284e-18 0 0.041999999999999996 
 -1.5707963267948966 7 1.5707963267948966 7
7 0 0  5 6 2  -0.011000000000000001 -1.3471114790620886e-18 0  -0.010999999999999972 -1.3471114790620852e-18 0.00062831853071795699  -0.010511678757312628 -1.2873093743808121e-18 0.0012830916813887018  -0.009488321242687385 -1.161984223913896e-18 0.001283091681388696  -0.0090000000000000115 -1.1021821192326183e-18 0.00062831853071796024  -0.0089999999999999993 -1.1021821192326178e-18 0 
 0 6 3.1415926535897931 6
7 0 0  5 6 2  -0.0090000000000000011 -1.1021821192326178e-18 0  -0.0089999999999999785 -1.1021821192326145e-18 -0.00062831853071795677  -0.0094883212426874475 -1.1619842239139029e-18 -0.0012830916813887012  -0.010511678757312553 -1.287309374380805e-18 -0.0012830916813886966  -0.011000000000000017 -1.34711147906209e-18 -0.00062831853071796046  -0.011000000000000003 -1.3471114790620886e-18 -2.1684043449710089e-19 
 3.1415926535897931 6 6.2831853071795862 6
2 0.01 2.4492935982947064e-18 0 2.4492935982947064e-16 -1 0 1 2.4492935982947064e-16 -0 -0 -0 1 0.0010000000000000009
2 0.01 2.4492935982947064e-18 0 2.4492935982947064e-16 -1 0 1 2.4492935982947064e-16 -0 -0 -0 1 0.0010000000000000009
7 0 0  8 9 2  0.0090000000000000028 -4.2900804329901506e-18 1.2246467991473543e-19  0.0089999999999999872 -0.007068583470577052 1.2246467991473572e-19  0.0026205290502639479 -0.013993117142775052 1.2246467991473418e-19  -0.0097972534491597412 -0.015252215779738388 1.2246467991473791e-19  -0.021647291434497683 9.0205620750793895e-17 1.2246467991473204e-19  -0.009797253449159788 0.015252215779738227 1.2246467991473866e-19  0.0026205290502639769 0.013993117142775147 1.2246467991473356e-19  0.0089999999999999872 0.0070685834705770329 1.2246467991473604e-19  0.0090000000000000028 6.118260422870692e-18 1.2246467991473543e-19 
 0 9 6.2831853071795862 9
2 0 0 -2.4492935982947087e-19 0 0 -1 1 -0 -0 -0 -1 -0 0.011000000000000001
7 0 0  8 9 2  0.0090000000000000028 4.2900804329901506e-18 1.2246467991473543e-19  0.0089999999999999872 0.007068583470577052 1.2246467991473572e-19  0.0026205290502639479 0.013993117142775052 1.2246467991473418e-19  -0.0097972534491597412 0.015252215779738388 1.2246467991473791e-19  -0.021647291434497683 -9.0205620750793895e-17 1.2246467991473204e-19  -0.009797253449159788 -0.015252215779738227 1.2246467991473866e-19  0.0026205290502639769 -0.013993117142775147 1.2246467991473356e-19  0.0089999999999999872 -0.0070685834705770329 1.2246467991473604e-19  0.0090000000000000028 -6.118260422870692e-18 1.2246467991473543e-19 
 0 9 6.2831853071795862 9
2 0 0 -2.4492935982947087e-19 0 0 1 1 0 -0 -0 1 0 0.011000000000000001
Polygon3D 0
PolygonOnTriangulations 0
Surfaces 7
10 0 3.1415926535897931 -1.5707963267948966 1.5707963267948966
4 0 0 0 -0 -0 1 1 -0 -0 -0 -1 -0 0.042000000000000003
10 0 3.1415926535897931 -1.5707963267948966 1.5707963267948966
4 0 0 0 0 0 1 1 0 -0 -0 1 0 0.042000000000000003
1 -1 0 -1 -0 -1 -0 -0 -0 1 1 -0 -0 
10 0 3.1415926535897931 0 3.1415926535897931
5 0 0 0 -0 -0 1 1 -0 -0 -0 -1 -0 0.01 0.0010000000000000009
10 0 3.1415926535897931 0 3.1415926535897931
5 0 0 0 0 0 1 1 0 -0 -0 1 0 0.01 0.0010000000000000009
10 0 3.1415926535897931 3.1415926535897931 6.2831853071795862
5 0 0 0 -0 -0 1 1 -0 -0 -0 -1 -0 0.01 0.0010000000000000009
10 0 3.1415926535897931 3.1415926535897931 6.2831853071795862
5 0 0 0 0 0 1 1 0 -0 -0 1 0 0.01 0.0010000000000000009
Triangulations 0

TShapes 38
Ve
1.29780624578737e-05
2.57175827820944e-18 2.0996636957266e-34 0.042
0 0

0101101
*
Ed
 1e-07 1 1 1
2  1 1 0 0 3.14159265358979
0

0101000
+38 0 -38 0 *
Ve
1.29780624578737e-05
2.57175827820944e-18 2.0996636957266e-34 -0.042
0 0

0101101
*
Ed
 1.00000000030861e-07 1 1 0
1  1 0 4.71238898038469 7.85398163397448
2  2 1 0 4.71238898038469 7.85398163397448
2  3 2 0 4.71238898038469 7.85398163397448
0

0101000
+36 0 -38 0 *
Ed
 1e-07 1 1 1
2  4 1 0 0 3.14159265358979
0

0101000
+36 0 -36 0 *
Ed
 1.29780624578737e-05 1 1 0
1  2 0 -1.5707963267949 1.5707963267949
2  5 1 0 -1.5707963267949 1.5707963267949
2  6 2 0 -1.5707963267949 1.5707963267949
0

0101000
+36 0 -38 0 *
Wi

0101100
-37 0 -35 0 +34 0 +33 0 *
Fa
0  1e-07 1 0

0111000
+32 0 *
Wi

0101100
-35 0 +33 0 *
Ve
1.00000000000043e-05
-0.011 0 0
0 0

0101101
*
Ve
1.00000000000043e-05
-0.009 0 0
0 0

0101101
*
Ed
 1.00000000000029e-05 1 1 0
1  3 0 0 3.14159265358979
2  7 4 0 0 3.14159265358979
2  8 5 0 0 3.14159265358979
0

0101000
+29 0 -28 0 *
Ed
 1.00000000000043e-05 1 1 0
1  4 0 3.14159265358979 6.28318530717959
2  9 6 0 3.14159265358979 6.28318530717959
2  10 7 0 3.14159265358979 6.28318530717959
0

0101000
+28 0 -29 0 *
Wi

0101100
-27 0 -26 0 *
Ve
1e-05
0.009 0 0
0 0

0101101
*
Ve
1.00000000009855e-07
0.011 8.98074319374726e-19 -2.44929359829471e-19
0 0

0101101
*
Ed
 1.00000000008058e-07 1 1 0
1  5 0 3.14159265358979 6.28318530717959
2  11 6 0 3.14159265358979 6.28318530717959
2  12 7 0 3.14159265358979 6.28318530717959
0

0101000
+24 0 -23 0 *
Ed
 1.00000000008059e-07 1 1 0
1  6 0 0 3.14159265358979
2  13 4 0 0 3.14159265358979
2  14 5 0 0 3.14159265358979
0

0101000
+23 0 -24 0 *
Wi

0101100
+22 0 +21 0 *
Fa
0  1e-07 3 0

0111000
+30 0 +25 0 +20 0 *
Ed
 1e-07 1 1 1
2  1 2 0 0 3.14159265358979
0

0101000
+38 0 -38 0 *
Ed
 1e-07 1 1 1
2  4 2 0 0 3.14159265358979
0

0101000
+36 0 -36 0 *
Wi

0101100
-18 0 -35 0 +17 0 +33 0 *
Fa
0  1e-07 2 0

0111000
+16 0 *
Ed
 1e-05 1 1 0
1  7 0 0 3.14159265358979
2  15 4 0 0 3.14159265358979
2  16 6 0 0 3.14159265358979
0

0101000
+24 0 -28 0 *
Ed
 1e-07 1 1 0
1  8 0 0 3.14159265358979
2  17 4 0 0 3.14159265358979
2  18 6 0 0 3.14159265358979
0

0101000
+23 0 -29 0 *
Wi

0101100
-14 0 -21 0 +13 0 +27 0 *
Fa
0  1e-07 4 0

0111000
+12 0 *
Ed
 1e-05 1 1 0
1  9 0 0 3.14159265358979
2  15 5 0 0 3.14159265358979
2  16 7 0 0 3.14159265358979
0

0101000
+24 0 -28 0 *
Ed
 1e-07 1 1 0
1  10 0 0 3.14159265358979
2  17 5 0 0 3.14159265358979
2  18 7 0 0 3.14159265358979
0

0101000
+23 0 -29 0 *
Wi

0101100
-10 0 -21 0 +9 0 +27 0 *
Fa
0  1e-07 5 0

0111000
+8 0 *
Wi

0101100
-13 0 -22 0 +14 0 +26 0 *
Fa
0  1e-07 6 0

0111000
+6 0 *
Wi

0101100
-9 0 -22 0 +10 0 +26 0 *
Fa
0  1e-07 7 0

0111000
+4 0 *
Sh

0101000
-31 0 +19 0 +15 0 +11 0 -7 0 +5 0 -3 0 *
Co

1100000
+2 0 *

+1 0 
##EGADS HEADER FILE-REV 1 ##
0
  0  1  7  9  14  6  5
3 7 39
capsAIM
#egadsTessAIM;aflr4AIM;tetgenAIM;pumiAIM
2 14 1
capsMeshLength
 1.000000000000e+00
1 5 1
_body
12
1 5 1
_brch
14
2 8 3
_tParams
 3.637311026023e-03  1.091193307807e-03  2.000000000000e+01 
    2 0 6
1 5 2
_body
2 2 
1 5 2
_brch
9 6 
1 5 6
_hist
2 4 6 8 9 12 
1 9 12
__trace__
2 2 4 1 6 1 8 1 9 1 12 1 
1 7 3
_faceID
2 2 1 
3 9 8
capsGroup
#farfield
    2 1 6
1 5 2
_body
3 4 
1 5 2
_brch
12 6 
1 5 5
_hist
3 4 6 11 12 
1 9 10
__trace__
3 4 4 2 6 2 11 2 12 2 
1 7 3
_faceID
3 4 1 
3 9 3
capsGroup
#cut
    2 2 6
1 5 2
_body
2 2 
1 5 2
_brch
12 6 
1 5 5
_hist
2 4 6 11 12 
1 9 10
__trace__
2 2 4 1 6 1 11 1 12 3 
1 7 3
_faceID
2 2 2 
3 9 8
capsGroup
#farfield
    2 3 6
1 5 2
_body
1 2 
1 5 2
_brch
9 6 
1 5 5
_hist
1 6 8 9 12 
1 9 10
__trace__
1 2 6 3 8 3 9 3 12 4 
1 7 3
_faceID
1 2 1 
3 9 4
capsGroup
#ring
    2 4 6
1 5 2
_body
1 2 
1 5 2
_brch
12 6 
1 5 4
_hist
1 6 11 12 
1 9 8
__trace__
1 2 6 3 11 3 12 5 
1 7 3
_faceID
1 2 2 
3 9 4
capsGroup
#ring
    2 5 6
1 5 2
_body
1 3 
1 5 2
_brch
9 6 
1 5 5
_hist
1 6 8 9 12 
1 9 10
__trace__
1 3 6 4 8 4 9 4 12 6 
1 7 3
_faceID
1 3 1 
3 9 4
capsGroup
#ring
    2 6 6
1 5 2
_body
1 3 
1 5 2
_brch
12 6 
1 5 4
_hist
1 6 11 12 
1 9 8
__trace__
1 3 6 4 11 4 12 7 
1 7 3
_faceID
1 3 2 
3 9 4
capsGroup
#ring
    4 0 4
1 5 2
_body
2 -3 
1 7 5
_edgeID
0 0 2 2 4 
1 6 1
_nface
1
1 9 2
__trace__
12 1 
    4 1 4
1 5 2
_body
12 0 
1 7 5
_edgeID
2 2 2 2 2 
1 6 1
_nface
3
1 9 2
__trace__
12 2 
    4 2 4
1 5 2
_body
2 -3 
1 7 5
_edgeID
0 0 2 2 1 
1 6 1
_nface
1
1 9 2
__trace__
12 3 
    4 3 4
1 5 2
_body
12 0 
1 7 5
_edgeID
2 2 2 2 1 
1 6 1
_nface
3
1 9 2
__trace__
12 4 
    4 4 4
1 5 2
_body
12 0 
1 7 5
_edgeID
1 2 1 2 1 
1 6 1
_nface
3
1 9 2
__trace__
12 5 
    4 5 4
1 5 2
_body
12 0 
1 7 5
_edgeID
1 3 1 3 1 
1 6 1
_nface
3
1 9 2
__trace__
12 6 
    4 6 4
1 5 2
_body
12 0 
1 7 5
_edgeID
1 3 1 3 2 
1 6 1
_nface
3
1 9 2
__trace__
12 7 
    4 7 4
1 5 2
_body
12 0 
1 7 5
_edgeID
1 2 1 2 2 
1 6 1
_nface
3
1 9 2
__trace__
12 8 
    4 8 4
1 5 2
_body
2 -3 
1 7 5
_edgeID
0 0 2 2 3 
1 6 1
_nface
1
1 9 2
__trace__
12 9 
    4 9 4
1 5 2
_body
2 -3 
1 7 5
_edgeID
0 0 2 2 2 
1 6 1
_nface
1
1 9 2
__trace__
12 10 
    4 10 4
1 5 2
_body
1 30002 
1 7 5
_edgeID
1 2 1 3 2 
1 9 10
__trace__
1 5 6 9 8 9 9 9 12 11 
1 6 1
_nface
2
    4 11 4
1 5 2
_body
1 20003 
1 7 5
_edgeID
1 2 1 3 1 
1 9 10
__trace__
1 6 6 10 8 10 9 10 12 12 
1 6 1
_nface
2
    4 12 4
1 5 2
_body
1 20003 
1 7 5
_edgeID
1 2 1 3 3 
1 9 8
__trace__
1 5 6 9 11 9 12 13 
1 6 1
_nface
2
    4 13 4
1 5 2
_body
1 30002 
1 7 5
_edgeID
1 2 1 3 4 
1 9 8
__trace__
1 6 6 10 11 10 12 14 
1 6 1
_nface
2
    5 0 3
1 9 10
__trace__
2 1 4 1 6 1 11 1 12 1 
1 7 1
_nodeID
1
1 6 1
_nedge
4
    5 1 3
1 9 10
__trace__
2 2 4 2 6 2 11 2 12 2 
1 7 1
_nodeID
2
1 6 1
_nedge
4
    5 2 3
1 9 8
__trace__
1 2 6 3 11 3 12 3 
1 7 1
_nodeID
3
1 6 1
_nedge
4
    5 3 3
1 9 8
__trace__
1 4 6 4 11 4 12 4 
1 7 1
_nodeID
4
1 6 1
_nedge
4
    5 4 3
1 9 8
__trace__
1 3 6 5 11 5 12 5 
1 7 1
_nodeID
5
1 6 1
_nedge
4
    5 5 3
1 9 8
__trace__
1 1 6 6 11 6 12 6 
1 7 1
_nodeID
6
1 6 1
_nedge
4
    0 0 0
