DBRep_DrawableShape

CASCADE Topology V1, (c) Matra-Datavision
Locations 0
Curve2ds 16
1 0 0.01 1 0 
1 0 -0 0 1 
1 6.2831853071795862 -0 0 1 
1 0 0 1 0 
1 3.1415926535897931 0 0 1 
1 3.1415926535897931 0 0 1 
1 0 0.01 1 0 
1 0 0.01 1 0 
1 0 0.01 1 0 
1 0 0 1 0 
1 0 0 1 0 
1 0 0 1 0 
1 0 -0 0 1 
1 6.2831853071795862 -0 0 1 
1 3.1415926535897931 0 0 1 
1 3.1415926535897931 0 0 1 
Curves 18
2 0 0 0.0050000000000000001 0 0 1 1 0 0 0 1 0 0.10000000000000001
1 0.10000000000000001 -2.4492935982947065e-17 -0.0050000000000000001 0 0 1 
2 0 0 -0.0050000000000000001 0 0 1 1 0 0 0 1 0 0.10000000000000001
7 0 0  1 2 2  -0.10000000000000001 1.2246467991473533e-17 -0.0050000000000000001  -0.10000000000000001 1.2246467991473533e-17 0.0050000000000000001 
 0 2 0.01 2
2 0 0 0.0050000000000000001 0 0 1 1 0 0 0 1 0 0.10000000000000001
2 -0.050000000000000003 0 0.0050000000000000001 0 0 1 1 0 0 0 1 0 0.025000000000000001
2 -0.050000000000000003 0 0.0050000000000000001 0 0 1 1 0 0 0 1 0 0.025000000000000001
2 0.050000000000000003 0 0.0050000000000000001 0 0 1 1 0 0 0 1 0 0.025000000000000001
2 0.050000000000000003 0 0.0050000000000000001 0 0 1 1 0 0 0 1 0 0.025000000000000001
2 0 0 -0.0050000000000000001 0 0 1 1 0 0 0 1 0 0.10000000000000001
2 -0.050000000000000003 0 -0.0050000000000000001 0 0 1 1 0 0 0 1 0 0.025000000000000001
2 -0.050000000000000003 0 -0.0050000000000000001 0 0 1 1 0 0 0 1 0 0.025000000000000001
2 0.050000000000000003 0 -0.0050000000000000001 0 0 1 1 0 0 0 1 0 0.025000000000000001
2 0.050000000000000003 0 -0.0050000000000000001 0 0 1 1 0 0 0 1 0 0.025000000000000001
1 -0.025000000000000001 -6.1232339957367663e-18 -0.0050000000000000001 0 0 1 
7 0 0  1 2 2  -0.075000000000000011 3.0616169978683832e-18 -0.0050000000000000001  -0.075000000000000011 3.0616169978683832e-18 0.0050000000000000001 
 0 2 0.01 2
1 0.075000000000000011 -6.1232339957367663e-18 -0.0050000000000000001 0 0 1 
7 0 0  1 2 2  0.024999999999999994 3.0616169978683832e-18 -0.0050000000000000001  0.024999999999999994 3.0616169978683832e-18 0.0050000000000000001 
 0 2 0.01 2
Polygon3D 0
PolygonOnTriangulations 0
Surfaces 12
10 0 3.1415926535897931 0 0.01
2 0 0 -0.0050000000000000001 0 0 1 1 0 0 0 1 0 0.10000000000000001
10 3.1415926535897931 6.2831853071795862 0 0.01
2 0 0 -0.0050000000000000001 0 0 1 1 0 0 0 1 0 0.10000000000000001
1 0 0 0.0050000000000000001 0 0 1 1 0 0 0 1 0 
10 0 3.1415926535897931 0 0.01
2 -0.050000000000000003 0 -0.0050000000000000001 0 0 1 1 0 0 0 1 0 0.025000000000000001
10 3.1415926535897931 6.2831853071795862 0 0.01
2 -0.050000000000000003 0 -0.0050000000000000001 0 0 1 1 0 0 0 1 0 0.025000000000000001
10 0 3.1415926535897931 0 0.01
2 0.050000000000000003 0 -0.0050000000000000001 0 0 1 1 0 0 0 1 0 0.025000000000000001
10 3.1415926535897931 6.2831853071795862 0 0.01
2 0.050000000000000003 0 -0.0050000000000000001 0 0 1 1 0 0 0 1 0 0.025000000000000001
1 0 0 -0.0050000000000000001 0 0 1 1 0 0 0 1 0 
1 0 0 0.0050000000000000001 0 0 1 1 0 0 0 1 0 
1 0 0 0.0050000000000000001 0 0 1 1 0 0 0 1 0 
1 0 0 -0.0050000000000000001 0 0 1 1 0 0 0 1 0 
1 0 0 -0.0050000000000000001 0 0 1 1 0 0 0 1 0 
Triangulations 0

TShapes 60
Ve
1e-07
-0.1 1.22464679914735e-17 0.005
0 0

0101101
*
Ve
1e-07
0.1 -2.44929359829471e-17 0.005
0 0

0101101
*
Ed
 1e-07 1 1 0
1  1 0 0 3.14159265358979
2  1 1 0 0 3.14159265358979
0

0101000
-60 0 +59 0 *
Ve
1e-07
0.1 -2.44929359829471e-17 -0.005
0 0

0101101
*
Ed
 1e-07 1 1 0
1  2 0 0 0.01
2  2 1 0 0 0.01
2  3 2 0 0 0.01
0

0101000
-59 0 +57 0 *
Ve
1e-07
-0.1 1.22464679914735e-17 -0.005
0 0

0101101
*
Ed
 1e-07 1 1 0
1  3 0 0 3.14159265358979
2  4 1 0 0 3.14159265358979
0

0101000
+57 0 -55 0 *
Ed
 1e-05 1 1 0
1  4 0 0 0.01
2  5 1 0 0 0.01
2  6 2 0 0 0.01
0

0101000
+55 0 -60 0 *
Wi

0101100
-58 0 -56 0 +54 0 +53 0 *
Fa
0  1e-07 1 0

0111000
+52 0 *
Ed
 1e-07 1 1 0
1  5 0 3.14159265358979 6.28318530717959
2  7 2 0 3.14159265358979 6.28318530717959
0

0101000
-59 0 +60 0 *
Wi

0101100
+58 0 +50 0 *
Ve
1e-07
-0.025 -6.12323399573677e-18 0.005
0 0

0101101
*
Ve
1e-05
-0.075 3.06161699786838e-18 0.005
0 0

0101101
*
Ed
 1e-07 1 1 0
1  6 0 0 3.14159265358979
2  8 4 0 0 3.14159265358979
0

0101000
+48 0 -47 0 *
Ed
 1e-07 1 1 0
1  7 0 3.14159265358979 6.28318530717959
2  9 5 0 3.14159265358979 6.28318530717959
0

0101000
+47 0 -48 0 *
Wi

0101100
-46 0 -45 0 *
Ve
1e-07
0.075 -6.12323399573677e-18 0.005
0 0

0101101
*
Ve
1e-05
0.025 3.06161699786838e-18 0.005
0 0

0101101
*
Ed
 1e-07 1 1 0
1  8 0 0 3.14159265358979
2  8 6 0 0 3.14159265358979
0

0101000
+43 0 -42 0 *
Ed
 1e-07 1 1 0
1  9 0 3.14159265358979 6.28318530717959
2  9 7 0 3.14159265358979 6.28318530717959
0

0101000
+42 0 -43 0 *
Wi

0101100
-41 0 -40 0 *
Fa
0  1e-07 3 0

0111000
+49 0 +44 0 +39 0 *
Ed
 1e-07 1 1 0
1  10 0 3.14159265358979 6.28318530717959
2  10 2 0 3.14159265358979 6.28318530717959
0

0101000
+55 0 -57 0 *
Wi

0101100
+37 0 +56 0 -50 0 -53 0 *
Fa
0  1e-07 2 0

0111000
+36 0 *
Wi

0101100
+54 0 +37 0 *
Ve
1e-07
-0.025 -6.12323399573677e-18 -0.005
0 0

0101101
*
Ve
1e-05
-0.075 3.06161699786838e-18 -0.005
0 0

0101101
*
Ed
 1e-07 1 1 0
1  11 0 0 3.14159265358979
2  11 4 0 0 3.14159265358979
0

0101000
+33 0 -32 0 *
Ed
 1e-07 1 1 0
1  12 0 3.14159265358979 6.28318530717959
2  12 5 0 3.14159265358979 6.28318530717959
0

0101000
+32 0 -33 0 *
Wi

0101100
-31 0 -30 0 *
Ve
1e-07
0.075 -6.12323399573677e-18 -0.005
0 0

0101101
*
Ve
1e-05
0.025 3.06161699786838e-18 -0.005
0 0

0101101
*
Ed
 1e-07 1 1 0
1  13 0 0 3.14159265358979
2  11 6 0 0 3.14159265358979
0

0101000
+28 0 -27 0 *
Ed
 1e-07 1 1 0
1  14 0 3.14159265358979 6.28318530717959
2  12 7 0 3.14159265358979 6.28318530717959
0

0101000
+27 0 -28 0 *
Wi

0101100
-26 0 -25 0 *
Fa
0  1e-07 8 0

0111000
+34 0 +29 0 +24 0 *
Ed
 1e-07 1 1 0
1  15 0 0 0.01
2  13 4 0 0 0.01
2  14 5 0 0 0.01
0

0101000
+33 0 -48 0 *
Ed
 1e-05 1 1 0
1  16 0 0 0.01
2  15 4 0 0 0.01
2  16 5 0 0 0.01
0

0101000
+32 0 -47 0 *
Wi

0101100
-46 0 -22 0 +31 0 +21 0 *
Fa
0  1e-07 4 0

0111000
+20 0 *
Wi

0101100
+45 0 +46 0 *
Fa
0  1e-07 9 0

0111000
+18 0 *
Wi

0101100
+30 0 +22 0 -45 0 -21 0 *
Fa
0  1e-07 5 0

0111000
+16 0 *
Wi

0101100
+40 0 +41 0 *
Fa
0  1e-07 10 0

0111000
+14 0 *
Ed
 1e-07 1 1 0
1  17 0 0 0.01
2  13 6 0 0 0.01
2  14 7 0 0 0.01
0

0101000
+28 0 -43 0 *
Ed
 1e-05 1 1 0
1  18 0 0 0.01
2  15 6 0 0 0.01
2  16 7 0 0 0.01
0

0101000
+27 0 -42 0 *
Wi

0101100
-41 0 -12 0 +26 0 +11 0 *
Fa
0  1e-07 6 0

0111000
+10 0 *
Wi

0101100
+25 0 +12 0 -40 0 -11 0 *
Fa
0  1e-07 7 0

0111000
+8 0 *
Wi

0101100
+30 0 +31 0 *
Fa
0  1e-07 11 0

0111000
+6 0 *
Wi

0101100
+25 0 +26 0 *
Fa
0  1e-07 12 0

0111000
+4 0 *
Sh

0101000
+51 0 +38 0 +35 0 -23 0 +19 0 +17 0 +15 0 +13 0 +9 0 +7 0 
-5 0 -3 0 *
Co

1100000
+2 0 *

+1 0 
##EGADS HEADER FILE-REV 1 ##
0
  0  1  12  16  18  12  5
3 7 39
capsAIM
#egadsTessAIM;aflr4AIM;tetgenAIM;pumiAIM
2 14 1
capsMeshLength
 1.000000000000e+00
1 5 1
_body
9
1 5 1
_brch
10
2 8 3
_tParams
 7.075493092363e-03  2.122647927709e-03  2.000000000000e+01 
    2 0 6
1 5 2
_body
3 3 
1 5 2
_brch
4 3 
1 5 4
_hist
3 4 6 9 
1 9 8
__trace__
3 1 4 1 6 1 9 1 
1 7 3
_faceID
3 3 1 
3 9 14
capsGroup
#parallel_wires
    2 1 6
1 5 2
_body
3 2 
1 5 2
_brch
4 2 
1 5 4
_hist
3 4 6 9 
1 9 8
__trace__
3 3 4 3 6 2 9 2 
1 7 3
_faceID
3 2 1 
3 9 14
capsGroup
#parallel_wires
    2 2 6
1 5 2
_body
3 4 
1 5 2
_brch
4 4 
1 5 4
_hist
3 4 6 9 
1 9 8
__trace__
3 2 4 2 6 3 9 3 
1 7 3
_faceID
3 4 1 
3 9 14
capsGroup
#parallel_wires
    2 3 6
1 5 2
_body
3 1 
1 5 2
_brch
4 1 
1 5 4
_hist
3 4 6 9 
1 9 8
__trace__
3 4 4 4 6 4 9 4 
1 7 3
_faceID
3 1 1 
3 9 14
capsGroup
#parallel_wires
    2 4 6
1 5 2
_body
1 3 
1 5 2
_brch
6 2 
1 5 4
_hist
1 2 6 9 
1 9 8
__trace__
1 1 2 1 6 6 9 5 
1 7 3
_faceID
1 3 1 
3 9 14
capsGroup
#parallel_wires
    2 5 6
1 5 2
_body
1 2 
1 5 2
_brch
6 2 
1 5 4
_hist
1 2 6 9 
1 9 8
__trace__
1 3 2 3 6 5 9 6 
1 7 3
_faceID
1 2 1 
3 9 14
capsGroup
#parallel_wires
    2 6 6
1 5 2
_body
1 4 
1 5 2
_brch
6 2 
1 5 4
_hist
1 2 6 9 
1 9 8
__trace__
1 2 2 2 6 7 9 7 
1 7 3
_faceID
1 4 1 
3 9 14
capsGroup
#parallel_wires
    2 7 6
1 5 2
_body
1 2 
1 5 2
_brch
8 2 
1 5 4
_hist
1 2 8 9 
1 9 8
__trace__
1 3 2 3 8 3 9 8 
1 7 3
_faceID
1 2 2 
3 9 14
capsGroup
#parallel_wires
    2 8 6
1 5 2
_body
1 3 
1 5 2
_brch
8 2 
1 5 4
_hist
1 2 8 9 
1 9 8
__trace__
1 1 2 1 8 1 9 9 
1 7 3
_faceID
1 3 2 
3 9 14
capsGroup
#parallel_wires
    2 9 6
1 5 2
_body
1 4 
1 5 2
_brch
8 2 
1 5 4
_hist
1 2 8 9 
1 9 8
__trace__
1 2 2 2 8 2 9 10 
1 7 3
_faceID
1 4 2 
3 9 14
capsGroup
#parallel_wires
    2 10 6
1 5 2
_body
1 1 
1 5 2
_brch
6 2 
1 5 4
_hist
1 2 6 9 
1 9 8
__trace__
1 4 2 4 6 8 9 11 
1 7 3
_faceID
1 1 1 
3 9 14
capsGroup
#parallel_wires
    2 11 6
1 5 2
_body
1 1 
1 5 2
_brch
8 2 
1 5 4
_hist
1 2 8 9 
1 9 8
__trace__
1 4 2 4 8 4 9 12 
1 7 3
_faceID
1 1 2 
3 9 14
capsGroup
#parallel_wires
    4 0 4
1 9 8
__trace__
3 1 4 1 6 1 9 1 
1 5 2
_body
3 20003 
1 7 5
_edgeID
3 2 3 3 1 
1 6 1
_nface
2
    4 1 4
1 9 8
__trace__
3 2 4 2 6 2 9 2 
1 5 2
_body
3 40003 
1 7 5
_edgeID
3 3 3 4 2 
1 6 1
_nface
2
    4 2 4
1 9 8
__trace__
3 3 4 3 6 3 9 3 
1 5 2
_body
3 30001 
1 7 5
_edgeID
3 1 3 3 1 
1 6 1
_nface
2
    4 3 4
1 9 8
__trace__
3 4 4 4 6 4 9 4 
1 5 2
_body
3 30004 
1 7 5
_edgeID
3 3 3 4 1 
1 6 1
_nface
2
    4 4 4
1 9 8
__trace__
3 6 4 6 6 5 9 5 
1 5 2
_body
3 20004 
1 7 5
_edgeID
3 2 3 4 1 
1 6 1
_nface
2
    4 5 4
1 9 8
__trace__
1 1 2 1 6 6 9 6 
1 5 2
_body
1 20003 
1 7 5
_edgeID
1 2 1 3 1 
1 6 1
_nface
3
    4 6 4
1 9 8
__trace__
1 6 2 6 6 7 9 7 
1 5 2
_body
1 20004 
1 7 5
_edgeID
1 2 1 4 1 
1 6 1
_nface
3
    4 7 4
1 5 2
_body
1 20003 
1 7 5
_edgeID
1 2 1 3 2 
1 9 8
__trace__
1 1 2 1 8 1 9 8 
1 6 1
_nface
3
    4 8 4
1 5 2
_body
1 20004 
1 7 5
_edgeID
1 2 1 4 2 
1 9 8
__trace__
1 6 2 6 8 6 9 9 
1 6 1
_nface
3
    4 9 4
1 9 8
__trace__
3 5 4 5 6 8 9 10 
1 5 2
_body
3 40001 
1 7 5
_edgeID
3 1 3 4 1 
1 6 1
_nface
2
    4 10 4
1 9 8
__trace__
1 3 2 3 6 9 9 11 
1 5 2
_body
1 30001 
1 7 5
_edgeID
1 1 1 3 1 
1 6 1
_nface
3
    4 11 4
1 9 8
__trace__
1 5 2 5 6 10 9 12 
1 5 2
_body
1 40001 
1 7 5
_edgeID
1 1 1 4 1 
1 6 1
_nface
3
    4 12 4
1 5 2
_body
1 30001 
1 7 5
_edgeID
1 1 1 3 2 
1 9 8
__trace__
1 3 2 3 8 3 9 13 
1 6 1
_nface
3
    4 13 4
1 5 2
_body
1 40001 
1 7 5
_edgeID
1 1 1 4 2 
1 9 8
__trace__
1 5 2 5 8 5 9 14 
1 6 1
_nface
3
    4 14 4
1 9 8
__trace__
1 2 2 2 6 11 9 15 
1 5 2
_body
1 40003 
1 7 5
_edgeID
1 3 1 4 2 
1 6 1
_nface
2
    4 15 4
1 9 8
__trace__
1 4 2 4 6 12 9 16 
1 5 2
_body
1 30004 
1 7 5
_edgeID
1 3 1 4 1 
1 6 1
_nface
2
    4 16 4
1 5 2
_body
1 40003 
1 7 5
_edgeID
1 3 1 4 4 
1 9 8
__trace__
1 2 2 2 8 2 9 17 
1 6 1
_nface
2
    4 17 4
1 5 2
_body
1 30004 
1 7 5
_edgeID
1 3 1 4 3 
1 9 8
__trace__
1 4 2 4 8 4 9 18 
1 6 1
_nface
2
    5 0 3
1 9 8
__trace__
3 1 4 1 6 1 9 1 
1 7 1
_nodeID
1
1 6 1
_nedge
3
    5 1 3
1 9 8
__trace__
3 2 4 2 6 2 9 2 
1 7 1
_nodeID
2
1 6 1
_nedge
3
    5 2 3
1 9 8
__trace__
3 3 4 3 6 3 9 3 
1 7 1
_nodeID
3
1 6 1
_nedge
3
    5 3 3
1 9 8
__trace__
3 4 4 4 6 4 9 4 
1 7 1
_nodeID
4
1 6 1
_nedge
3
    5 4 3
1 9 8
__trace__
1 2 2 2 6 5 9 5 
1 7 1
_nodeID
5
1 6 1
_nedge
3
    5 5 3
1 9 8
__trace__
1 1 2 1 6 6 9 6 
1 7 1
_nodeID
6
1 6 1
_nedge
3
    5 6 3
1 9 8
__trace__
1 2 2 2 8 2 9 7 
1 7 1
_nodeID
7
1 6 1
_nedge
3
    5 7 3
1 9 8
__trace__
1 1 2 1 8 1 9 8 
1 7 1
_nodeID
8
1 6 1
_nedge
3
    5 8 3
1 9 8
__trace__
1 3 2 3 6 7 9 9 
1 7 1
_nodeID
9
1 6 1
_nedge
3
    5 9 3
1 9 8
__trace__
1 4 2 4 6 8 9 10 
1 7 1
_nodeID
10
1 6 1
_nedge
3
    5 10 3
1 9 8
__trace__
1 3 2 3 8 3 9 11 
1 7 1
_nodeID
11
1 6 1
_nedge
3
    5 11 3
1 9 8
__trace__
1 4 2 4 8 4 9 12 
1 7 1
_nodeID
12
1 6 1
_nedge
3
    0 0 0
